<?xml version="1.0" standalone="no"?>
<!DOCTYPE svg PUBLIC "-//W3C//DTD SVG 1.1//EN" "http://www.w3.org/Graphics/SVG/1.1/DTD/svg11.dtd" >
<svg xmlns="http://www.w3.org/2000/svg" xmlns:xlink="http://www.w3.org/1999/xlink" version="1.1">
<metadata>
Created by FontForge 20200314 at Tue Aug 21 00:28:37 2012
 By Unknown
Copyright (c) 2008 by Dino dos Santos _DSType. All rights reserved.
</metadata>
<defs>
<font id="PreloSlabW01-Book" horiz-adv-x="550" >
  <font-face 
    font-family="PreloSlabW01-Book"
    font-weight="500"
    font-stretch="normal"
    units-per-em="1000"
    panose-1="2 0 5 3 4 0 0 2 0 4"
    ascent="750"
    descent="-250"
    x-height="500"
    cap-height="680"
    bbox="-54 -210 1061 908"
    underline-thickness="50"
    underline-position="-150"
    unicode-range="U+0002-2122"
  />
<missing-glyph horiz-adv-x="180" 
 />
    <glyph glyph-name=".notdef" horiz-adv-x="180" 
 />
    <glyph glyph-name=".null" horiz-adv-x="0" 
 />
    <glyph glyph-name="uni000D" unicode="&#xd;" horiz-adv-x="0" 
 />
    <glyph glyph-name="glyph224" horiz-adv-x="0" 
 />
    <glyph glyph-name="glyph224" horiz-adv-x="0" 
 />
    <glyph glyph-name="uni0002" horiz-adv-x="0" 
 />
    <glyph glyph-name="uni0009" unicode="&#x9;" horiz-adv-x="0" 
 />
    <glyph glyph-name="uni000A" unicode="&#xa;" horiz-adv-x="0" 
 />
    <glyph glyph-name="space" unicode=" " horiz-adv-x="180" 
 />
    <glyph glyph-name="exclam" unicode="!" horiz-adv-x="192" 
d="M131 122v-122h-70v122h70zM131 700l-4 -480h-62l-4 480h70z" />
    <glyph glyph-name="quotedbl" unicode="&#x22;" horiz-adv-x="392" 
d="M131 680l-7 -138h-55l-8 138h70zM331 680l-7 -138h-55l-8 138h70z" />
    <glyph glyph-name="numbersign" unicode="#" horiz-adv-x="613" 
d="M255 500l-13 -121h155l13 121h52l-13 -121h100l-5 -48h-100l-17 -162h100l-5 -48h-100l-13 -121h-52l14 121h-155l-14 -121h-51l13 121h-100l5 48h100l17 162h-100l5 48h100l13 121h51zM220 169h155l18 162h-155z" />
    <glyph glyph-name="dollar" unicode="$" horiz-adv-x="620" 
d="M130 157v-81q60 -14 101.5 -19t78.5 -5q45 0 75.5 11t49.5 29t27.5 40t8.5 45q0 34 -17.5 57.5t-44 38.5t-57.5 24.5t-57 16.5q-40 10 -78.5 26.5t-68.5 41t-48.5 57.5t-18.5 76q0 45 16.5 77.5t45.5 53.5t68 31.5t85 12.5v90h32v-90q51 -2 101 -10t106 -24v-134h-59v84
q-57 13 -93.5 17t-72.5 4q-43 0 -72 -9t-46.5 -24t-25 -35t-7.5 -42q0 -33 18 -57t45.5 -40.5t59 -27t58.5 -16.5q40 -9 77.5 -23.5t67 -37t47 -54.5t17.5 -76q0 -47 -16.5 -82t-46 -59.5t-70 -37.5t-88.5 -15v-91h-32v90q-54 2 -111 9.5t-114 24.5v133h59z" />
    <glyph glyph-name="percent" unicode="%" horiz-adv-x="760" 
d="M219 0h-48l370 680h48zM181 399q-65 0 -98.5 36.5t-33.5 99.5t33.5 99.5t98.5 36.5t99 -36.5t34 -99.5t-34 -99.5t-99 -36.5zM181 435q44 0 66 26t22 74t-22 74t-66 26t-66 -26t-22 -74t22 -74t66 -26zM579 9q-65 0 -99 36.5t-34 99.5t34 99t99 36t98.5 -36t33.5 -99
t-33.5 -99.5t-98.5 -36.5zM579 45q43 0 65.5 26t22.5 74t-22.5 74t-65.5 26q-44 0 -66 -26t-22 -74t22 -74t66 -26z" />
    <glyph glyph-name="ampersand" unicode="&#x26;" horiz-adv-x="705" 
d="M494 540q0 -22 -7.5 -44t-26 -44.5t-51 -45.5t-82.5 -47l195 -193q28 35 47.5 81t27.5 103h67q-8 -56 -30.5 -117.5t-66.5 -113.5l87 -89l-47 -50l-89 93q-42 -38 -99.5 -60.5t-133.5 -22.5q-58 0 -100.5 13.5t-70.5 37.5t-42 57.5t-14 73.5q0 28 8 53.5t27.5 49.5t52 47
t82.5 47q-13 15 -28.5 32.5t-28.5 37.5t-21.5 42.5t-8.5 48.5q0 42 16 72t42 49.5t59 29t67 9.5q78 0 123.5 -39t45.5 -111zM295 51q46 0 93 15t87 53l-210 213q-27 -13 -51 -27.5t-42.5 -32t-29 -40t-10.5 -50.5q0 -20 7 -42.5t25 -42.5t49.5 -33t81.5 -13zM209 534
q0 -40 22.5 -71.5t54.5 -64.5q29 13 55 28.5t45 33t30 38t11 44.5q0 32 -12 51.5t-28.5 30t-34.5 14t-29 3.5q-36 0 -58 -12t-34.5 -29t-17 -35t-4.5 -31z" />
    <glyph glyph-name="quotesingle" unicode="'" horiz-adv-x="192" 
d="M131 680l-7 -138h-55l-8 138h70z" />
    <glyph glyph-name="parenleft" unicode="(" horiz-adv-x="330" 
d="M71 340q0 125 44 249.5t125 230.5h49q-77 -125 -112.5 -242t-35.5 -238q0 -120 35.5 -236.5t112.5 -243.5h-49q-81 106 -125 231t-44 249z" />
    <glyph glyph-name="parenright" unicode=")" horiz-adv-x="330" 
d="M259 340q0 -124 -44 -249t-125 -231h-49q76 127 112 243.5t36 236.5q0 121 -35.5 238t-112.5 242h49q81 -106 125 -230.5t44 -249.5z" />
    <glyph glyph-name="asterisk" unicode="*" horiz-adv-x="410" 
d="M184 680h42l-5 -130l137 38l13 -42l-141 -22l92 -113l-33 -26l-85 123l-84 -123l-33 26l92 113l-141 22l12 42l139 -38z" />
    <glyph glyph-name="plus" unicode="+" horiz-adv-x="500" 
d="M279 294h160v-58h-160v-160h-58v160h-160v58h160v160h58v-160z" />
    <glyph glyph-name="comma" unicode="," horiz-adv-x="192" 
d="M70 -130l17 130h-26v122h70v-122l-36 -130h-25z" />
    <glyph glyph-name="hyphen" unicode="-" horiz-adv-x="500" 
d="M439 294v-58h-378v58h378z" />
    <glyph glyph-name="period" unicode="." horiz-adv-x="192" 
d="M131 122v-122h-70v122h70z" />
    <glyph glyph-name="slash" unicode="/" horiz-adv-x="540" 
d="M116 0h-62l370 680h62z" />
    <glyph glyph-name="zero" unicode="0" horiz-adv-x="570" 
d="M285 631q-49 0 -80 -23.5t-49 -63t-24.5 -91.5t-6.5 -108t6.5 -109.5t24.5 -95t49 -66.5t80 -25t80 25t49 66.5t24.5 95t6.5 109.5t-6.5 108t-24.5 91.5t-49 63t-80 23.5zM285 -10q-70 0 -115.5 28.5t-71.5 77t-36.5 113t-10.5 136.5q0 71 10.5 133.5t36.5 109.5
t71.5 74.5t115.5 27.5t115.5 -27.5t71.5 -74.5t36.5 -109.5t10.5 -133.5q0 -72 -10.5 -136.5t-36.5 -113t-71.5 -77t-115.5 -28.5z" />
    <glyph glyph-name="one" unicode="1" horiz-adv-x="390" 
d="M342 59v-59h-320v59h125v558l-118 -11v50l155 29h33v-626h125z" />
    <glyph glyph-name="two" unicode="2" horiz-adv-x="530" 
d="M482 134v-134h-441v69q112 75 179.5 137t104 111.5t48.5 88t12 67.5q0 51 -17 81.5t-41 46t-49.5 20.5t-42.5 5q-32 0 -64 -6t-71 -25v-68h-59v113q26 12 50.5 21t49.5 15.5t51.5 10t57.5 3.5q54 0 93.5 -16t65 -44t38 -64.5t12.5 -76.5q0 -105 -78.5 -208t-239.5 -217
v-2h283v72h58z" />
    <glyph glyph-name="three" unicode="3" horiz-adv-x="520" 
d="M35 152h59v-75q31 -14 69 -21t80 -7q55 0 87.5 14.5t49.5 35t22 43t5 39.5q0 56 -42.5 93t-134.5 37h-83v58h80q42 0 72.5 12t50.5 31t29.5 43.5t9.5 50.5q0 17 -5.5 39t-21.5 41t-44.5 32t-74.5 13q-39 0 -72.5 -8t-62.5 -21v-75h-59v116q48 25 101 36t104 11
q97 0 151 -46.5t54 -130.5q0 -32 -10.5 -58.5t-29 -47.5t-43 -35.5t-52.5 -23.5v-2q73 -13 114 -58t41 -111q0 -89 -58 -138t-174 -49q-59 0 -111.5 10.5t-100.5 36.5v115z" />
    <glyph glyph-name="four" unicode="4" horiz-adv-x="570" 
d="M360 257v351h-2q-48 -97 -111 -184t-133 -167h246zM360 199h-319v58q41 45 83 95t81.5 104t74.5 111.5t62 117.5h88v-428h99v-58h-99v-140h69v-59h-208v59h69v140z" />
    <glyph glyph-name="five" unicode="5" horiz-adv-x="540" 
d="M462 546h-58v71h-260l-15 -259l2 -1q26 32 64 52.5t92 20.5q95 0 148.5 -55.5t53.5 -157.5q0 -110 -65 -168.5t-174 -58.5q-57 0 -105 12.5t-100 37.5v109h59v-70q40 -18 73.5 -24t68.5 -6q78 0 123.5 43.5t45.5 121.5q0 27 -7.5 54.5t-25 50t-46.5 36.5t-72 14
q-48 0 -82 -18.5t-63 -56.5l-53 5l18 381h378v-134z" />
    <glyph glyph-name="six" unicode="6" 
d="M123 358q31 44 74.5 70.5t94.5 26.5q97 0 152 -61t55 -174q0 -54 -16.5 -96.5t-45.5 -72.5t-68.5 -45.5t-85.5 -15.5q-68 0 -113 26t-71.5 69.5t-37 99.5t-10.5 115q0 111 22 186t60 120.5t88.5 64.5t107.5 19q49 0 83 -7t66 -17v-120h-59v74q-21 5 -40 8t-44 3
q-62 0 -102.5 -28.5t-65 -70t-35 -88.5t-11.5 -85zM127 301q-2 -48 3 -93.5t21.5 -81t46.5 -56.5t80 -21q29 0 55.5 11t47 32.5t32.5 53.5t12 74q0 28 -6.5 59t-23 56.5t-46 42t-75.5 16.5q-45 0 -83 -27t-64 -66z" />
    <glyph glyph-name="seven" unicode="7" horiz-adv-x="490" 
d="M449 680v-51q-38 -63 -78 -135.5t-76 -152.5t-64 -166t-42 -175h-78q11 73 38.5 156t64 165t78 158.5t80.5 135.5v2h-266v-71h-59v134h402z" />
    <glyph glyph-name="eight" unicode="8" 
d="M339 357q36 -15 67.5 -32t54 -39t35.5 -49t13 -63q0 -88 -63.5 -136t-172.5 -48q-107 0 -169.5 46t-62.5 132q0 36 13.5 63.5t36.5 49.5t53.5 38.5t65.5 28.5v2q-32 12 -59.5 28t-47.5 36.5t-31 46.5t-11 59q0 40 16.5 72t45 53.5t68 33t86.5 11.5q45 0 83.5 -11.5
t67 -33t45 -52.5t16.5 -70q0 -32 -11 -56.5t-30.5 -43.5t-47 -34.5t-61.5 -29.5v-2zM113 174q0 -25 8.5 -48.5t28 -42t50.5 -29.5t77 -11q45 0 75.5 10.5t49.5 28t27 40.5t8 47q0 33 -15.5 57t-40.5 41.5t-55.5 30.5t-60.5 24q-28 -10 -55.5 -23t-49 -30.5t-34.5 -41
t-13 -53.5zM273 637q-21 0 -45.5 -5.5t-46 -18.5t-36 -35.5t-14.5 -56.5q0 -28 12 -49.5t33 -38t48.5 -28t58.5 -20.5q28 10 53 22t43.5 27.5t29 36t10.5 46.5q0 35 -14.5 58.5t-36.5 37t-47.5 19t-47.5 5.5z" />
    <glyph glyph-name="nine" unicode="9" 
d="M427 322q-31 -44 -74.5 -70.5t-94.5 -26.5q-98 0 -152.5 61t-54.5 174q0 54 16.5 96.5t45.5 72.5t68.5 45.5t85.5 15.5q68 0 113 -26t71.5 -69.5t37 -99.5t10.5 -115q0 -112 -22 -187t-60 -120t-88.5 -64t-107.5 -19q-49 0 -83 7t-66 17v120h59v-74q21 -6 40 -8.5
t44 -2.5q61 0 102 28.5t65.5 70t35 88.5t11.5 85zM423 379q2 48 -3 93.5t-21.5 80.5t-47 56.5t-79.5 21.5q-29 0 -56 -11t-47 -32.5t-32 -53.5t-12 -74q0 -29 6 -59.5t23 -56t46 -42t76 -16.5q45 0 83 27t64 66z" />
    <glyph glyph-name="colon" unicode=":" horiz-adv-x="192" 
d="M131 122v-122h-70v122h70zM131 460v-123h-70v123h70z" />
    <glyph glyph-name="semicolon" unicode=";" horiz-adv-x="192" 
d="M131 460v-123h-70v123h70zM70 -130l17 130h-26v122h70v-122l-36 -130h-25z" />
    <glyph glyph-name="less" unicode="&#x3c;" horiz-adv-x="480" 
d="M419 454v-63l-284 -141l284 -141v-63l-358 182v44z" />
    <glyph glyph-name="equal" unicode="=" horiz-adv-x="500" 
d="M439 394v-58h-378v58h378zM439 194v-58h-378v58h378z" />
    <glyph glyph-name="greater" unicode="&#x3e;" horiz-adv-x="480" 
d="M419 272v-44l-358 -182v63l284 141l-284 141v63z" />
    <glyph glyph-name="question" unicode="?" horiz-adv-x="480" 
d="M51 652q42 17 90 27.5t98 10.5q57 0 94 -16t58.5 -40.5t29.5 -55t8 -59.5q0 -45 -14 -76t-35.5 -53t-46.5 -38.5t-46.5 -32.5t-35.5 -34.5t-14 -44.5v-30h-62v30q0 33 12.5 56t31 41t41 33.5t42 33.5t34 41t17.5 56q3 32 -4 54q-8 23 -23 37t-33.5 21t-37.5 9t-33 2
q-19 0 -47.5 -5.5t-64.5 -18.5v-78h-59v130zM241 122v-122h-70v122h70z" />
    <glyph glyph-name="at" unicode="@" horiz-adv-x="810" 
d="M266 440q35 10 73.5 15.5t70.5 5.5q34 0 60 -5.5t43.5 -20t26.5 -39.5t9 -63v-222q58 0 96 21.5t60 54t30.5 69.5t8.5 68q0 66 -25.5 118.5t-69 90t-102 57.5t-123.5 20q-78 0 -143.5 -26t-113.5 -73t-74.5 -112.5t-26.5 -145.5q0 -73 24.5 -134t68 -105t103.5 -68.5
t131 -24.5l-4 -41q-81 0 -149 28.5t-116.5 78.5t-76 118t-27.5 148q0 87 30.5 160.5t84.5 126.5t128 82.5t161 29.5q76 0 142.5 -23.5t116 -66.5t78.5 -103t29 -133q0 -53 -15.5 -100.5t-46.5 -83t-77.5 -56t-107.5 -20.5h-49v39h-2q-26 -24 -56.5 -35t-69.5 -11
q-58 0 -92 29.5t-34 81.5q0 64 44.5 91.5t119.5 27.5h90v41q0 42 -20.5 63t-74.5 21q-16 0 -39 -3t-48 -9v-63h-46v101zM494 254h-87q-64 0 -87.5 -21t-23.5 -58q0 -33 23 -52.5t68 -19.5q38 0 65.5 12.5t41.5 24.5v114z" />
    <glyph glyph-name="A" unicode="A" horiz-adv-x="700" 
d="M407 680l216 -621h54v-59h-218v59h84l-52 149h-278l-55 -149h79v-59h-215v59h64l204 562h-76v59h193zM357 614h-1l-127 -351h249z" />
    <glyph glyph-name="B" unicode="B" horiz-adv-x="630" 
d="M444 347q66 -14 100.5 -58t34.5 -108q0 -84 -50 -132.5t-149 -48.5h-358v59h69v562h-69v59h338q99 0 149 -47t50 -125q0 -60 -29.5 -101.5t-85.5 -57.5v-2zM165 317v-258h204q63 0 97.5 33t34.5 96q0 59 -36.5 94t-108.5 35h-191zM481 499q0 54 -33 88t-96 34h-187v-245
h187q63 0 96 31.5t33 91.5z" />
    <glyph glyph-name="C" unicode="C" horiz-adv-x="610" 
d="M565 154v-130q-61 -18 -117 -26t-113 -8q-86 0 -141 28t-87 76.5t-44 113t-12 137.5q0 71 12 133.5t44 109.5t87 74.5t141 27.5q57 0 113 -8t117 -26v-130h-59v84q-28 6 -50.5 10.5t-42 6.5t-37 3t-35.5 1q-65 0 -106.5 -23.5t-65 -63t-32 -91.5t-8.5 -108
q0 -60 8.5 -114t32 -94.5t65 -64t106.5 -23.5q18 0 35.5 0.5t37 3t42 6.5t50.5 11v84h59z" />
    <glyph glyph-name="D" unicode="D" horiz-adv-x="660" 
d="M328 680q81 0 135.5 -26t86.5 -71t45.5 -106t13.5 -132q0 -72 -13.5 -135t-45.5 -109.5t-86.5 -73.5t-135.5 -27h-306v59h69v562h-69v59h306zM328 59q61 0 100.5 23.5t62.5 63t31.5 91.5t8.5 108t-8.5 106.5t-31.5 88t-62.5 59.5t-100.5 22h-163v-562h163z" />
    <glyph glyph-name="E" unicode="E" horiz-adv-x="570" 
d="M519 680v-134h-59v75h-295v-239h304v-58h-304v-265h295v75h59v-134h-497v59h69v562h-69v59h497z" />
    <glyph glyph-name="F" unicode="F" horiz-adv-x="555" 
d="M509 680v-134h-59v75h-285v-259h294v-58h-294v-245h69v-59h-212v59h69v562h-69v59h487z" />
    <glyph glyph-name="G" unicode="G" horiz-adv-x="620" 
d="M129 345q0 -58 10.5 -111t35 -93.5t65.5 -64.5t101 -24q43 0 81 11t69 31v182h-142v59h216v-288q-46 -21 -101 -39t-129 -18q-81 0 -135.5 28.5t-87.5 77t-47 113t-14 136.5q0 71 12 133.5t44 109.5t87 74.5t141 27.5q57 0 113 -8t117 -26v-130h-59v84q-28 6 -50.5 10.5
t-42 6.5t-37 3t-35.5 1q-65 0 -106.5 -23.5t-65 -63t-32 -91.5t-8.5 -108z" />
    <glyph glyph-name="H" unicode="H" horiz-adv-x="680" 
d="M515 59v265h-350v-265h69v-59h-212v59h69v562h-69v59h212v-59h-69v-239h350v239h-69v59h211v-59h-68v-562h68v-59h-211v59h69z" />
    <glyph glyph-name="I" unicode="I" horiz-adv-x="256" 
d="M91 59v562h-69v59h212v-59h-69v-562h69v-59h-212v59h69z" />
    <glyph glyph-name="J" unicode="J" horiz-adv-x="346" 
d="M324 680v-59h-69v-456q0 -50 -10 -83.5t-29.5 -53.5t-47 -29t-63.5 -9q-23 0 -44.5 2t-41.5 5l7 59q18 -3 32 -4t28 -1q51 0 73 27t22 87v456h-69v59h212z" />
    <glyph glyph-name="K" unicode="K" horiz-adv-x="680" 
d="M234 680v-59h-69v-329l316 329h-77v59h243v-59h-78l-216 -222l231 -340h73v-59h-247v59h81l-194 288l-132 -135v-153h69v-59h-212v59h69v562h-69v59h212z" />
    <glyph glyph-name="L" unicode="L" 
d="M515 134v-134h-493v59h69v562h-69v59h212v-59h-69v-562h291v75h59z" />
    <glyph glyph-name="M" unicode="M" horiz-adv-x="840" 
d="M817 680v-59h-68v-562h68v-59h-211v59h69v482h-2l-229 -541h-49l-234 541h-2v-482h71v-59h-208v59h69v562h-69v59h158l243 -558h2l237 558h155z" />
    <glyph glyph-name="N" unicode="N" horiz-adv-x="690" 
d="M667 680v-59h-68v-621h-76l-362 545h-2v-486h71v-59h-208v59h69v562h-69v59h141l366 -554h2v495h-71v59h207z" />
    <glyph glyph-name="O" unicode="O" horiz-adv-x="670" 
d="M335 631q-66 0 -106.5 -23.5t-62.5 -63t-29.5 -91.5t-7.5 -108t7.5 -109.5t29.5 -95t62.5 -66.5t106.5 -25t106.5 25t62.5 66.5t29.5 95t7.5 109.5t-7.5 108t-29.5 91.5t-62.5 63t-106.5 23.5zM335 -10q-86 0 -141 28.5t-87 77t-44 113t-12 136.5q0 71 12 133.5t44 109.5
t87 74.5t141 27.5t141 -27.5t87 -74.5t44 -109.5t12 -133.5q0 -72 -12 -136.5t-44 -113t-87 -77t-141 -28.5z" />
    <glyph glyph-name="P" unicode="P" horiz-adv-x="620" 
d="M366 680q49 0 87 -14.5t63.5 -40t39 -61t13.5 -78.5q0 -91 -52 -142.5t-151 -51.5h-201v-233h69v-59h-212v59h69v562h-69v59h344zM165 351h194q63 0 98.5 34.5t35.5 100.5q0 62 -35.5 98.5t-98.5 36.5h-194v-270z" />
    <glyph glyph-name="Q" unicode="Q" horiz-adv-x="670" 
d="M51 345q0 71 12 133.5t44 109.5t87 74.5t141 27.5t141 -27.5t87 -74.5t44 -109.5t12 -133.5q0 -69 -12 -128t-39.5 -103.5t-72.5 -70.5t-112 -29q9 -15 32.5 -25.5t54.5 -16t66.5 -6t68.5 2.5v-67q-46 -5 -90 -3t-82 12.5t-68 30t-48 48.5q-80 3 -131.5 32.5t-81.5 78
t-41.5 111.5t-11.5 133zM335 631q-66 0 -106.5 -23.5t-62.5 -63t-29.5 -91.5t-7.5 -108t7.5 -109.5t29.5 -95t62.5 -66.5t106.5 -25t106.5 25t62.5 66.5t29.5 95t7.5 109.5t-7.5 108t-29.5 91.5t-62.5 63t-106.5 23.5z" />
    <glyph glyph-name="R" unicode="R" horiz-adv-x="650" 
d="M366 680q49 0 87 -15t63.5 -41.5t39 -62.5t13.5 -79q0 -74 -41 -125.5t-114 -61.5l162 -236h51v-59h-220v59h76l-150 225h-168v-225h69v-59h-212v59h69v562h-69v59h344zM165 342h187q63 0 102 37t39 103q0 62 -35.5 100.5t-98.5 38.5h-194v-279z" />
    <glyph glyph-name="S" unicode="S" horiz-adv-x="580" 
d="M110 157v-81q60 -14 101.5 -19t78.5 -5q45 0 75.5 11t49.5 29t27.5 40t8.5 45q0 34 -17.5 57.5t-44 38.5t-57.5 24.5t-57 16.5q-40 10 -79 26.5t-70 41t-50 57.5t-19 76q0 47 18 80.5t49 54.5t72.5 30.5t89.5 9.5q56 0 110 -8t115 -26v-134h-59v84q-56 13 -93 17t-73 4
q-43 0 -72 -9t-46.5 -24t-25 -35t-7.5 -42q0 -33 19 -57t46.5 -40.5t60 -27t59.5 -16.5q40 -9 77.5 -23.5t67 -37t47 -54.5t17.5 -76q0 -49 -18 -85.5t-50 -61t-76 -36.5t-95 -12q-56 0 -117 8t-122 26v133h59z" />
    <glyph glyph-name="T" unicode="T" horiz-adv-x="580" 
d="M532 680v-134h-58v75h-147v-562h69v-59h-212v59h69v562h-147v-75h-59v134h485z" />
    <glyph glyph-name="U" unicode="U" horiz-adv-x="680" 
d="M657 680v-59h-68v-381q0 -131 -63 -190.5t-186 -59.5t-186 59.5t-63 190.5v381h-69v59h212v-59h-69v-381q0 -29 4.5 -62t22 -62t53 -48t98.5 -19q59 0 93.5 19t52 48t22 62t4.5 62v381h-69v59h211z" />
    <glyph glyph-name="V" unicode="V" horiz-adv-x="690" 
d="M667 680v-59h-53l-218 -626h-95l-227 626h-52v59h232v-59h-99l196 -549h1l187 549h-99v59h227z" />
    <glyph glyph-name="W" unicode="W" horiz-adv-x="980" 
d="M254 680v-59h-98l143 -533h1l156 592h80l159 -592h1l140 533h-99v59h220v-59h-49l-169 -626h-99l-149 552h-2l-145 -552h-100l-172 626h-50v59h232z" />
    <glyph glyph-name="X" unicode="X" horiz-adv-x="700" 
d="M667 680v-59h-66l-194 -270l211 -292h59v-59h-244v59h88l-179 255l-178 -255h82v-59h-224v59h64l212 296l-191 266h-75v59h241v-59h-68l160 -227l158 227h-76v59h220z" />
    <glyph glyph-name="Y" unicode="Y" horiz-adv-x="660" 
d="M436 59v-59h-212v59h69v166l-213 396h-58v59h236v-59h-99l176 -325h2l174 325h-98v59h224v-59h-54l-216 -396v-166h69z" />
    <glyph glyph-name="Z" unicode="Z" horiz-adv-x="560" 
d="M505 680v-55l-368 -564v-2h325v75h59v-134h-476v55l371 564v2h-299v-75h-58v134h446z" />
    <glyph glyph-name="bracketleft" unicode="[" horiz-adv-x="300" 
d="M259 -96v-44h-198v960h198v-44h-124v-872h124z" />
    <glyph glyph-name="backslash" unicode="\" horiz-adv-x="540" 
d="M54 680h62l370 -680h-62z" />
    <glyph glyph-name="bracketright" unicode="]" horiz-adv-x="300" 
d="M165 -96v872h-124v44h198v-960h-198v44h124z" />
    <glyph glyph-name="asciicircum" unicode="^" horiz-adv-x="380" 
d="M101 510h-40l105 190h48l105 -190h-40l-90 150z" />
    <glyph glyph-name="underscore" unicode="_" horiz-adv-x="500" 
d="M439 -60v-44h-378v44h378z" />
    <glyph glyph-name="grave" unicode="`" horiz-adv-x="290" 
d="M91 700h61l63 -140h-40z" />
    <glyph glyph-name="a" unicode="a" horiz-adv-x="535" 
d="M79 374v116q50 10 98 15t88 5q43 0 76.5 -7.5t56.5 -26.5t34.5 -50.5t11.5 -79.5v-287h68v-59h-138v50h-2q-35 -29 -69.5 -43t-78.5 -16q-35 -2 -66.5 4.5t-56.5 24t-39.5 46.5t-14.5 72q0 44 18 72.5t47 45t67 23t77 6.5h118v57q0 55 -28 82t-96 27q-20 0 -47 -2t-65 -9
v-66h-59zM374 241h-108q-83 0 -116.5 -26t-33.5 -75q0 -43 31 -69t88 -26q50 0 85 16.5t54 31.5v148z" />
    <glyph glyph-name="b" unicode="b" horiz-adv-x="560" 
d="M22 700h139v-250h2q29 26 70.5 43t88.5 17q52 0 88 -20t58 -55t31.5 -82.5t9.5 -102.5t-10 -102.5t-32.5 -82.5t-59 -55t-88.5 -20q-46 0 -88 16t-72 42h-2l-12 -48h-123v59h69v582h-69v59zM435 250q0 40 -6.5 76.5t-22.5 64t-43 44t-67 16.5q-23 0 -43.5 -5t-38 -12
t-31 -15.5t-22.5 -15.5v-306q9 -7 22.5 -15.5t31 -15.5t38 -12t43.5 -5q40 0 67 16t43 44t22.5 64t6.5 77z" />
    <glyph glyph-name="c" unicode="c" horiz-adv-x="492" 
d="M399 374v66q-38 8 -65 9.5t-44 1.5q-45 0 -76 -15t-51 -42t-29 -64t-9 -80t9 -80t29 -64t51 -42t76 -15q26 0 60.5 2.5t93.5 17.5l13 -57q-45 -11 -82.5 -16.5t-84.5 -5.5q-66 0 -112 19t-74 53.5t-40.5 82t-12.5 105.5t12.5 105.5t40.5 82t74 53.5t112 19
q47 0 84.5 -5.5t82.5 -16.5v-114h-58z" />
    <glyph glyph-name="d" unicode="d" horiz-adv-x="560" 
d="M330 700h139v-641h68v-59h-138v50h-2q-29 -26 -70.5 -43t-89.5 -17q-53 0 -88.5 20t-57 55t-31 82.5t-9.5 102.5t10 102.5t32.5 82.5t58.5 55t89 20q45 0 86 -16t70 -42h2v189h-69v59zM125 250q0 -41 6.5 -77t22.5 -64t42.5 -44t67.5 -16q23 0 43.5 5t38 12t31 15.5
t22.5 15.5v306q-9 7 -22.5 15.5t-31 15.5t-38 12t-43.5 5q-41 0 -67.5 -16.5t-42.5 -44t-22.5 -64t-6.5 -76.5z" />
    <glyph glyph-name="e" unicode="e" horiz-adv-x="530" 
d="M125 241q1 -42 11 -77.5t31.5 -61t55.5 -39.5t83 -14q38 0 76 3.5t80 16.5l9 -57q-45 -13 -85.5 -17.5t-89.5 -4.5q-68 0 -114.5 19t-75.5 53.5t-42 82t-13 105.5t12.5 105.5t41 82t74 53.5t111.5 19q78 0 120 -27.5t59.5 -68.5t17 -87.5t-8.5 -85.5h-353zM286 455
q-43 0 -72.5 -13t-48 -36t-28 -53.5t-12.5 -65.5h285q6 29 4.5 59t-15 54t-41 39.5t-72.5 15.5z" />
    <glyph glyph-name="f" unicode="f" horiz-adv-x="339" 
d="M32 59h69v390h-79v46l79 5v68q0 70 31 101t108 31q17 0 37 -2t39 -5l-7 -55q-17 3 -29.5 4t-24.5 1q-48 0 -66 -18t-18 -64v-61h128v-51h-128v-390h81v-59h-220v59z" />
    <glyph glyph-name="g" unicode="g" horiz-adv-x="555" 
d="M96 -69q0 -42 36 -67t119 -25q40 0 75 6.5t61 20t41 34.5t15 49q0 25 -19.5 43.5t-73.5 21.5l-184 10q-30 -20 -50 -40t-20 -53zM265 226q58 0 92.5 30t34.5 84q0 55 -35 88t-92 33q-65 0 -97.5 -33t-32.5 -88t35 -84.5t95 -29.5zM126 37q-23 12 -32 32.5t-5 43t20 45.5
t42 40v2q-38 19 -61 54.5t-23 85.5q0 81 52 125.5t146 44.5q21 0 37.5 -3t30.5 -7h171v-44h-105v-1q19 -11 30.5 -25t18 -29.5t8.5 -31.5t2 -29q0 -41 -15 -72t-41 -51.5t-61 -30.5t-76 -10q-16 0 -37.5 3t-38.5 10q-15 -16 -24 -34t-9 -33.5t9.5 -26t30.5 -11.5l176 -8
q79 -5 112 -36t33 -79q0 -80 -67.5 -125.5t-214.5 -45.5q-97 0 -148.5 31.5t-51.5 98.5q0 35 21.5 62.5t69.5 52.5v2z" />
    <glyph glyph-name="h" unicode="h" horiz-adv-x="590" 
d="M364 59h65v272q0 52 -24 86t-86 34q-25 0 -48 -7t-43.5 -17t-37.5 -21.5t-29 -21.5v-325h65v-59h-204v59h69v582h-69v59h139v-273h2q38 37 84.5 60t101.5 23q75 0 112.5 -42t37.5 -122v-287h68v-59h-203v59z" />
    <glyph glyph-name="i" unicode="i" horiz-adv-x="252" 
d="M22 500h139v-441h69v-59h-208v59h69v382h-69v59zM161 700v-119h-70v119h70z" />
    <glyph glyph-name="j" unicode="j" horiz-adv-x="232" 
d="M22 500h149v-578q0 -71 -31 -101.5t-108 -30.5q-17 0 -36.5 2t-39.5 5l7 55q17 -3 30 -4t24 -1q49 0 66.5 18t17.5 64v512h-79v59zM171 700v-119h-70v119h70z" />
    <glyph glyph-name="k" unicode="k" horiz-adv-x="600" 
d="M22 700h139v-448l249 189h-63v59h220v-59h-76l-152 -115l172 -267h66v-59h-220v59h66l-143 229l-119 -91v-138h69v-59h-208v59h69v582h-69v59z" />
    <glyph glyph-name="l" unicode="l" horiz-adv-x="252" 
d="M22 700h139v-641h69v-59h-208v59h69v582h-69v59z" />
    <glyph glyph-name="m" unicode="m" horiz-adv-x="890" 
d="M345 59h65v275q0 25 -6 46.5t-19 37t-34 24.5t-51 9q-22 0 -42 -6.5t-37.5 -16.5t-32.5 -22t-27 -22v-325h65v-59h-204v59h69v382h-69v59h139v-73h2q14 14 30 28t35 25.5t40 19t46 8.5q13 1 25 0.5t24 -2.5q80 -10 105 -86q35 37 81 63.5t100 26.5q75 0 112.5 -42
t37.5 -122v-287h68v-59h-203v59h65v272q0 52 -24.5 86t-85.5 34q-22 0 -42.5 -7t-38.5 -17t-33.5 -22.5t-27.5 -22.5q3 -21 3 -48v-275h65v-59h-200v59z" />
    <glyph glyph-name="n" unicode="n" horiz-adv-x="590" 
d="M364 59h65v272q0 52 -24 86t-86 34q-25 0 -48 -7t-43.5 -17t-37.5 -21.5t-29 -21.5v-325h65v-59h-204v59h69v382h-69v59h139v-73h2q38 37 84.5 60t101.5 23q75 0 112.5 -42t37.5 -122v-287h68v-59h-203v59z" />
    <glyph glyph-name="o" unicode="o" 
d="M275 451q-44 0 -72.5 -16t-46 -43t-24.5 -63.5t-7 -78.5t7 -78.5t24.5 -63.5t46 -43t72.5 -16q43 0 72 16t46.5 43t24.5 63.5t7 78.5t-7 78.5t-24.5 63.5t-46.5 43t-72 16zM275 -10q-61 0 -103.5 19t-69.5 53.5t-39 82t-12 105.5t12 105.5t39 82t69.5 53.5t103.5 19
t103.5 -19t69.5 -53.5t39 -82t12 -105.5t-12 -105.5t-39 -82t-69.5 -53.5t-103.5 -19z" />
    <glyph glyph-name="p" unicode="p" horiz-adv-x="560" 
d="M22 500h139v-50h2q29 26 70.5 43t88.5 17q52 0 88 -20t58 -55t31.5 -82.5t9.5 -102.5t-10 -102.5t-32.5 -82.5t-59 -55t-88.5 -20q-46 0 -86.5 16t-69.5 42h-2v-189h69v-59h-208v59h69v582h-69v59zM435 250q0 40 -6.5 76.5t-22.5 64t-43 44t-67 16.5q-23 0 -43.5 -5
t-38 -12t-31 -15.5t-22.5 -15.5v-306q9 -7 22.5 -15.5t31 -15.5t38 -12t43.5 -5q40 0 67 16t43 44t22.5 64t6.5 77z" />
    <glyph glyph-name="q" unicode="q" horiz-adv-x="530" 
d="M330 -141h69v191h-2q-29 -26 -70.5 -43t-89.5 -17q-53 0 -88.5 20t-57 55t-31 82.5t-9.5 102.5t10 102.5t32.5 82.5t58.5 55t89 20q45 0 87.5 -16t71.5 -42h2l13 50h54v-643h68v-59h-207v59zM125 250q0 -41 6.5 -77t22.5 -64t42.5 -44t67.5 -16q23 0 43.5 5t38 12
t31 15.5t22.5 15.5v306q-9 7 -22.5 15.5t-31 15.5t-38 12t-43.5 5q-41 0 -67.5 -16.5t-42.5 -44t-22.5 -64t-6.5 -76.5z" />
    <glyph glyph-name="r" unicode="r" horiz-adv-x="400" 
d="M22 500h139v-80h2q17 17 38.5 33t46.5 29t53 20.5t58 7.5v-66q-30 0 -59 -6.5t-55 -16.5t-47.5 -22t-36.5 -22v-318h81v-59h-220v59h69v382h-69v59z" />
    <glyph glyph-name="s" unicode="s" horiz-adv-x="480" 
d="M367 374v66q-42 10 -77.5 11.5t-54.5 1.5q-39 0 -62 -9.5t-34 -22t-14 -25.5t-3 -19q0 -14 4.5 -27t17.5 -24t36.5 -21t61.5 -18q41 -9 76.5 -19.5t61 -27.5t40 -41.5t14.5 -60.5q0 -72 -45.5 -110t-133.5 -38q-57 0 -110.5 5.5t-98.5 16.5v114h59v-66q44 -10 83 -11.5
t59 -1.5q40 0 63.5 11t35.5 25t15 28.5t3 22.5q0 14 -5 26.5t-19 23.5t-38.5 20.5t-63.5 17.5q-38 7 -72 17.5t-59.5 28t-40 43.5t-14.5 64q0 67 46 101t133 34q57 0 103.5 -5.5t91.5 -16.5v-114h-59z" />
    <glyph glyph-name="t" unicode="t" horiz-adv-x="375" 
d="M101 449h-79v46l79 5l9 140h61v-140h148v-51h-148v-291q0 -55 19 -83t72 -28q12 0 25 1t30 4l7 -55q-20 -3 -43.5 -5t-40.5 -2q-73 0 -106 34.5t-33 122.5v302z" />
    <glyph glyph-name="u" unicode="u" horiz-adv-x="590" 
d="M22 500h139v-331q0 -26 5.5 -48t18.5 -38t34 -25t52 -9q25 0 48 7t43.5 17t37.5 21.5t29 21.5v325h-88v59h158v-441h68v-59h-138v72h-2q-38 -36 -84.5 -59t-101.5 -23q-75 0 -112.5 41.5t-37.5 122.5v287h-69v59z" />
    <glyph glyph-name="v" unicode="v" horiz-adv-x="579" 
d="M362 500h195v-59h-46l-179 -446h-83l-179 446h-48v59h206v-59h-80l147 -372h2l144 372h-79v59z" />
    <glyph glyph-name="w" unicode="w" horiz-adv-x="809" 
d="M592 500h195v-59h-47l-138 -446h-75l-122 385h-2l-114 -385h-75l-146 446h-46v59h206v-59h-85l114 -363h2l121 422h59l127 -426h2l104 367h-80v59z" />
    <glyph glyph-name="x" unicode="x" horiz-adv-x="609" 
d="M389 500h187v-59h-61l-161 -187l169 -195h63v-59h-221v59h62l-142 169l-138 -169h66v-59h-191v59h56l171 203l-157 179h-60v59h219v-59h-63l130 -155l127 155h-56v59z" />
    <glyph glyph-name="y" unicode="y" horiz-adv-x="579" 
d="M362 500h195v-59h-46l-187 -475q-32 -80 -77 -128t-112 -48q-17 0 -35 2t-32 5l7 57q13 -3 24 -4t22 -1q28 0 50 13t38 33t28 44.5t21 47.5l-188 454h-48v59h206v-59h-80l153 -381h2l138 381h-79v59z" />
    <glyph glyph-name="z" unicode="z" horiz-adv-x="470" 
d="M429 500v-55l-309 -388v-2h262v71h59v-126h-409v55l311 388v2h-246v-71h-58v126h390z" />
    <glyph glyph-name="braceleft" unicode="{" horiz-adv-x="340" 
d="M195 7q0 -43 9 -66t24 -34t33.5 -13t37.5 -2v-32q-40 0 -72.5 5t-56 20.5t-36.5 44t-13 76.5q0 46 5 95t5 94q0 24 -1 45t-7.5 37.5t-21 27t-40.5 14.5v42q26 4 40.5 14.5t21 27t7.5 37.5t1 45q0 45 -5 94t-5 95q0 47 13 76t36.5 44.5t56 20.5t72.5 5v-33q-19 0 -37.5 -2
t-33.5 -12.5t-24 -34t-9 -66.5q0 -23 1.5 -50.5t4 -56t4 -56t1.5 -50.5q0 -30 -6 -50.5t-17.5 -34t-27 -21.5t-34.5 -12v-2q19 -5 34.5 -12.5t27 -21t17.5 -34t6 -50.5q0 -23 -1.5 -51t-4 -56.5t-4 -56t-1.5 -50.5z" />
    <glyph glyph-name="bar" unicode="|" horiz-adv-x="170" 
d="M61 -100v880h48v-880h-48z" />
    <glyph glyph-name="braceright" unicode="}" horiz-adv-x="340" 
d="M145 672q0 43 -9 66.5t-24 34t-33.5 12.5t-37.5 2v33q39 0 72 -5t56.5 -20.5t36.5 -44.5t13 -76q0 -46 -5 -95t-5 -94q0 -24 1 -45t7.5 -37.5t21 -27t40.5 -14.5v-42q-26 -4 -40.5 -14.5t-21 -27t-7.5 -37.5t-1 -45q0 -45 5 -94t5 -95q0 -48 -13 -76.5t-36.5 -44
t-56.5 -20.5t-72 -5v32q19 0 37.5 2t33.5 13t24 34t9 66q0 23 -2 50.5t-4 56t-4 56.5t-2 51q0 30 6.5 50.5t17.5 34t27 21t35 12.5v2q-19 4 -35 12t-27 21.5t-17.5 34t-6.5 50.5q0 23 2 50.5t4 56t4 56t2 50.5z" />
    <glyph glyph-name="asciitilde" unicode="~" horiz-adv-x="460" 
d="M153 329q-7 0 -14.5 -1.5t-17 -6.5t-22 -15.5t-30.5 -28.5l-23 19q31 45 55 63.5t50 18.5q18 0 43.5 -9t52 -19.5t49.5 -19.5t36 -9q7 0 14 1t15.5 5.5t17 13.5t18.5 25l20 -22q-16 -32 -33 -50t-43 -20q-5 -1 -10.5 0t-10.5 2q-16 3 -39.5 12t-47.5 18t-45.5 16t-34.5 7
z" />
    <glyph glyph-name="uni00A0" unicode="&#xa0;" horiz-adv-x="180" 
 />
    <glyph glyph-name="exclamdown" unicode="&#xa1;" horiz-adv-x="192" 
d="M61 377v123h70v-123h-70zM61 -200l4 480h62l4 -480h-70z" />
    <glyph glyph-name="cent" unicode="&#xa2;" horiz-adv-x="510" 
d="M289 -100v90q-54 2 -96 21.5t-71.5 54t-45 81.5t-15.5 103t15.5 103t45 81.5t71.5 54t96 21.5v90h33v-91q43 -2 76 -11t69 -25l-8 -55q-39 14 -68.5 22.5t-68.5 9.5v-401q39 1 68.5 9.5t68.5 23.5l8 -55q-36 -17 -69 -25.5t-76 -10.5v-91h-33zM135 250q0 -40 10 -75.5
t29.5 -62t48 -43t66.5 -19.5v399q-38 -2 -66.5 -18.5t-48 -43.5t-29.5 -62t-10 -75z" />
    <glyph glyph-name="sterling" unicode="&#xa3;" horiz-adv-x="580" 
d="M161 325v-263h321v72h59v-134h-500v62h50v263h-50v36h50v154q0 47 17.5 80.5t47.5 54.5t71 30.5t89 9.5q63 0 118 -11.5t107 -34.5v-122h-59v72q-45 20 -86.5 26.5t-79.5 6.5q-45 0 -74.5 -9.5t-47.5 -25.5t-25.5 -37t-7.5 -45v-149h238v-36h-238z" />
    <glyph glyph-name="currency" unicode="&#xa4;" horiz-adv-x="513" 
d="M100 249q0 34 12.5 63t35.5 51l-78 90l8 8l79 -90q20 17 45.5 26.5t54.5 9.5q28 0 53.5 -9.5t45.5 -26.5l78 90l9 -8l-78 -89q23 -22 36.5 -51.5t13.5 -63.5t-13 -63.5t-36 -50.5l76 -86l-9 -9l-77 87q-20 -17 -45.5 -26t-53.5 -9q-29 0 -54.5 9t-45.5 26l-76 -87l-9 9
l76 86q-23 22 -35.5 51t-12.5 63zM112 249q0 -30 11.5 -56t31.5 -46t46 -31.5t56 -11.5t56.5 11.5t46.5 31.5t31.5 46t11.5 56t-11.5 56.5t-31.5 46.5t-46.5 31.5t-56.5 11.5t-56 -11.5t-46 -31.5t-31.5 -46.5t-11.5 -56.5z" />
    <glyph glyph-name="yen" unicode="&#xa5;" horiz-adv-x="660" 
d="M436 59v-59h-212v59h69v161h-172v36h155l-200 365h-54v59h236v-59h-95l172 -317h2l171 317h-95v59h224v-59h-54l-200 -365h156v-36h-172v-161h69z" />
    <glyph glyph-name="brokenbar" unicode="&#xa6;" horiz-adv-x="170" 
d="M61 380v400h48v-400h-48zM61 -100v400h48v-400h-48z" />
    <glyph glyph-name="section" unicode="&#xa7;" horiz-adv-x="600" 
d="M539 335q0 -57 -25.5 -97t-69.5 -63q39 -26 65 -62.5t26 -87.5q0 -47 -18 -80.5t-48.5 -54.5t-72.5 -30.5t-90 -9.5q-69 0 -126.5 16t-98.5 41l30 59q53 -29 101.5 -39.5t93.5 -10.5q44 0 73 9t46.5 24t24.5 34.5t7 41.5q0 33 -20.5 57t-49.5 40.5t-60.5 26t-54.5 15.5
q-40 9 -77 23.5t-65.5 37t-45.5 54.5t-17 76q0 57 25.5 97t70.5 63q-40 25 -66 62t-26 88q0 47 18 80.5t48.5 54.5t72.5 30.5t90 9.5q69 0 126.5 -16t98.5 -42l-29 -58q-53 29 -102 39.5t-94 10.5q-44 0 -73.5 -9t-46.5 -24t-24 -35t-7 -41q0 -33 20.5 -57t49.5 -40.5
t60.5 -26t54.5 -15.5q40 -9 77 -24t65.5 -37.5t45.5 -54t17 -75.5zM292 461q-17 2 -34.5 6.5t-34.5 10.5q-43 -19 -60.5 -52.5t-17.5 -66.5q0 -32 16 -54t39 -36.5t49 -23t46 -12.5q20 -5 41.5 -11.5t41.5 -15.5q45 19 64 54t19 71q0 34 -18 56.5t-44.5 37t-55.5 23
t-51 13.5z" />
    <glyph glyph-name="dieresis" unicode="&#xa8;" horiz-adv-x="480" 
d="M144 700v-115h-63v115h63zM399 700v-115h-63v115h63z" />
    <glyph glyph-name="copyright" unicode="&#xa9;" horiz-adv-x="765" 
d="M30 340q0 73 27.5 137t75.5 111t112 74.5t137 27.5t137.5 -27.5t112.5 -74.5t75.5 -111t27.5 -137t-27.5 -137t-75.5 -111t-112.5 -74.5t-137.5 -27.5t-137 27.5t-112 74.5t-75.5 111t-27.5 137zM64 340q0 -66 25 -124t68 -101t101 -68t124 -25t124 25t101.5 68t68.5 101
t25 124t-25 123.5t-68.5 100t-101.5 67.5t-124 25t-124 -25t-101 -67.5t-68 -100t-25 -123.5zM387 477q-63 0 -91 -35t-28 -98q0 -67 28 -105t91 -38q25 0 51.5 6.5t52.5 23.5l17 -33q-18 -12 -48 -24t-75 -12q-81 0 -122.5 47t-41.5 135q0 83 41.5 127.5t122.5 44.5
q45 0 75 -12t48 -24l-16 -35q-26 17 -53 24.5t-52 7.5z" />
    <glyph glyph-name="ordfeminine" unicode="&#xaa;" horiz-adv-x="279" 
d="M39 616v58q52 11 94 11q44 0 67 -17t23 -65v-141h34v-32h-72v25h-1q-17 -14 -33.5 -21t-38.5 -8q-13 -1 -25 0q-58 8 -63 61q-2 12 0 24q4 35 33 48.5t70 13.5h58v28q0 26 -14 39t-46 13q-10 0 -23 -1t-32 -4v-32h-31zM185 550h-52q-41 0 -57 -12.5t-16 -37.5
q0 -20 15 -33t43 -13q23 0 40.5 8t26.5 16v72z" />
    <glyph glyph-name="guillemotleft" unicode="&#xab;" horiz-adv-x="730" 
d="M319 435v-74l-184 -111l184 -111v-74l-258 163v44zM669 435v-74l-184 -111l184 -111v-74l-258 163v44z" />
    <glyph glyph-name="logicalnot" unicode="&#xac;" horiz-adv-x="590" 
d="M509 294v-168h-59v110h-369v58h428z" />
    <glyph glyph-name="uni00AD" unicode="&#xad;" horiz-adv-x="540" 
d="M459 294v-58h-378v58h378z" />
    <glyph glyph-name="registered" unicode="&#xae;" horiz-adv-x="765" 
d="M477 168l-96 118h-77v-118h-44v344h136q60 0 92 -30t32 -81q0 -47 -24 -75t-67 -33l102 -125h-54zM304 326h89q39 0 60.5 18.5t21.5 56.5q0 34 -21 52.5t-58 18.5h-92v-146zM30 340q0 73 27.5 137t75.5 111t112 74.5t137 27.5t137.5 -27.5t112.5 -74.5t75.5 -111
t27.5 -137t-27.5 -137t-75.5 -111t-112.5 -74.5t-137.5 -27.5t-137 27.5t-112 74.5t-75.5 111t-27.5 137zM64 340q0 -66 25 -124t68 -101t101 -68t124 -25t124 25t101.5 68t68.5 101t25 124t-25 123.5t-68.5 100t-101.5 67.5t-124 25t-124 -25t-101 -67.5t-68 -100
t-25 -123.5z" />
    <glyph glyph-name="macron" unicode="&#xaf;" horiz-adv-x="380" 
d="M311 642v-51h-242v51h242z" />
    <glyph glyph-name="degree" unicode="&#xb0;" horiz-adv-x="260" 
d="M42 580q0 37 25.5 62.5t62.5 25.5t62.5 -25.5t25.5 -62.5t-25.5 -62.5t-62.5 -25.5t-62.5 25.5t-25.5 62.5zM70 580q0 -26 17 -43t43 -17t43 17t17 43t-17 43t-43 17t-43 -17t-17 -43z" />
    <glyph glyph-name="plusminus" unicode="&#xb1;" horiz-adv-x="500" 
d="M221 109v132h-160v59h160v159h58v-159h160v-59h-160v-132h160v-59h-378v59h160z" />
    <glyph glyph-name="uni00B2" unicode="&#xb2;" horiz-adv-x="268" 
d="M245 608v-68h-223v37q55 37 89 67.5t52 55t24 43.5t6 33q0 25 -8.5 39.5t-20 22.5t-24 10.5t-21.5 2.5q-16 0 -30.5 -3.5t-34.5 -12.5v-32h-32v57q27 12 51 18.5t55 6.5q55 0 80 -30t25 -71q0 -53 -39 -103.5t-118 -105.5v-1h138v34h31z" />
    <glyph glyph-name="uni00B3" unicode="&#xb3;" horiz-adv-x="269" 
d="M22 617h32v-37q30 -13 73 -13q27 0 42.5 7t24 17t11 21t2.5 19q0 28 -20.5 45.5t-65.5 17.5h-42v32h40q42 0 61 20.5t19 45.5q0 9 -3 19.5t-10.5 20t-22 15.5t-36.5 6q-35 0 -66 -14v-36h-32v58q25 13 52 18.5t53 5.5q48 0 75 -23.5t27 -65.5q0 -32 -19 -52.5t-47 -29.5
v-1q35 -6 55.5 -29t20.5 -55q0 -45 -29 -69.5t-87 -24.5q-30 0 -56.5 5t-51.5 19v58z" />
    <glyph glyph-name="acute" unicode="&#xb4;" horiz-adv-x="290" 
d="M112 560h-40l63 140h62z" />
    <glyph glyph-name="mu" unicode="&#xb5;" horiz-adv-x="590" 
d="M22 500h139v-331q0 -26 5.5 -48t18.5 -38t34 -25t52 -9q25 0 48 7t43.5 17t37.5 21.5t29 21.5v325h-88v59h158v-441h68v-59h-138v72h-2q-32 -29 -70 -49.5t-82 -24.5q-42 -3 -70 8t-44 39v-61q0 -46 -4.5 -80t-17 -58t-34.5 -37t-56 -17q-9 -1 -18 -1.5t-20 -0.5
q-14 1 -31 2.5t-34 4.5l7 55q17 -3 30 -4t24 -1q50 0 67 28t17 83v483h-69v59z" />
    <glyph glyph-name="paragraph" unicode="&#xb6;" horiz-adv-x="565" 
d="M389 651h-66v-356h-92q-45 0 -82 14t-63.5 39.5t-41 61t-14.5 78.5q0 45 14.5 80.5t41 60.5t63.5 38t82 13h273v-29h-82v-622h82v-29h-147v6h32v645z" />
    <glyph glyph-name="periodcentered" unicode="&#xb7;" horiz-adv-x="192" 
d="M131 311v-122h-70v122h70z" />
    <glyph glyph-name="cedilla" unicode="&#xb8;" horiz-adv-x="294" 
d="M117 0h28v-56q15 -1 30 -5t27 -12.5t19.5 -22t7.5 -32.5q0 -35 -25 -56t-70 -21q-18 0 -35 3t-37 9l6 25q12 -3 24.5 -5.5t30.5 -2.5t30 5.5t19 13t9.5 16.5t2.5 17q0 7 -3 16t-10.5 16.5t-20.5 12.5t-33 5v74z" />
    <glyph glyph-name="uni00B9" unicode="&#xb9;" horiz-adv-x="206" 
d="M184 572v-32h-161v32h61v274l-58 -6v27l78 16h18v-311h62z" />
    <glyph glyph-name="ordmasculine" unicode="&#xba;" horiz-adv-x="271" 
d="M136 653q-43 0 -58.5 -28.5t-15.5 -69.5t15.5 -69.5t58.5 -28.5q42 0 57 28t15 70t-15 70t-57 28zM136 425q-62 0 -88 36t-26 94t26 94t88 36q61 0 86.5 -36t25.5 -94t-25.5 -94t-86.5 -36z" />
    <glyph glyph-name="guillemotright" unicode="&#xbb;" horiz-adv-x="730" 
d="M319 272v-44l-258 -163v74l184 111l-184 111v74zM669 272v-44l-258 -163v74l184 111l-184 111v74z" />
    <glyph glyph-name="onequarter" unicode="&#xbc;" horiz-adv-x="800" 
d="M251 0h-25l370 680h25zM234 372v-32h-161v32h61v274l-58 -6v27l78 16h18v-311h62zM641 131v170h-1q-24 -47 -54.5 -89.5t-64.5 -80.5h120zM641 99h-159v32q42 45 82 98t67 114h47v-212h49v-32h-49v-67h34v-32h-105v32h34v67z" />
    <glyph glyph-name="onehalf" unicode="&#xbd;" horiz-adv-x="800" 
d="M209 0h-25l370 680h25zM234 372v-32h-161v32h61v274l-58 -6v27l78 16h18v-311h62zM727 68v-68h-222v37q55 37 89 67.5t52 55t24 43.5t6 33q0 25 -8.5 39.5t-20 22.5t-24 10.5t-21.5 2.5q-16 0 -31 -3.5t-34 -12.5v-32h-32v57q26 12 50 18.5t55 6.5q55 0 80.5 -29.5
t25.5 -71.5q0 -53 -39 -103.5t-118 -105.5v-1h137v34h31z" />
    <glyph glyph-name="threequarters" unicode="&#xbe;" horiz-adv-x="800" 
d="M261 0h-25l370 680h25zM72 417h32v-37q30 -13 73 -13q27 0 42.5 7t24 17t11 21t2.5 19q0 28 -20.5 45.5t-65.5 17.5h-42v32h40q42 0 61 20.5t19 45.5q0 9 -3 19.5t-10.5 20t-22 15.5t-36.5 6q-35 0 -66 -14v-36h-32v58q25 13 52 18.5t53 5.5q48 0 75 -23.5t27 -65.5
q0 -32 -19 -52.5t-47 -29.5v-1q35 -6 55.5 -29t20.5 -55q0 -45 -29 -69.5t-87 -24.5q-30 0 -56.5 5t-51.5 19v58zM641 131v170h-1q-24 -47 -54.5 -89.5t-64.5 -80.5h120zM641 99h-159v32q42 45 82 98t67 114h47v-212h49v-32h-49v-67h34v-32h-105v32h34v67z" />
    <glyph glyph-name="questiondown" unicode="&#xbf;" horiz-adv-x="500" 
d="M439 -152q-42 -17 -90 -27.5t-98 -10.5q-57 0 -94 16t-58.5 40.5t-29.5 55t-8 59.5q0 45 14 76t35.5 53t46 38.5t46 32.5t35.5 34t14 45v30h63v-30q0 -35 -13.5 -59.5t-33.5 -43t-44 -34.5t-44 -34.5t-33.5 -42t-13.5 -58.5q0 -39 14.5 -61.5t35.5 -33.5t44 -14t40 -3
q20 0 48.5 5.5t64.5 18.5v77h59v-129zM249 377v123h70v-123h-70z" />
    <glyph glyph-name="Agrave" unicode="&#xc0;" horiz-adv-x="700" 
d="M239 870h61l63 -140h-40zM407 680l216 -621h54v-59h-218v59h84l-52 149h-278l-55 -149h79v-59h-215v59h64l204 562h-76v59h193zM357 614h-1l-127 -351h249z" />
    <glyph glyph-name="Aacute" unicode="&#xc1;" horiz-adv-x="700" 
d="M379 730h-40l63 140h62zM407 680l216 -621h54v-59h-218v59h84l-52 149h-278l-55 -149h79v-59h-215v59h64l204 562h-76v59h193zM357 614h-1l-127 -351h249z" />
    <glyph glyph-name="Acircumflex" unicode="&#xc2;" horiz-adv-x="700" 
d="M261 730h-40l105 140h48l105 -140h-40l-90 100zM407 680l216 -621h54v-59h-218v59h84l-52 149h-278l-55 -149h79v-59h-215v59h64l204 562h-76v59h193zM357 614h-1l-127 -351h249z" />
    <glyph glyph-name="Atilde" unicode="&#xc3;" horiz-adv-x="700" 
d="M299 799q-9 0 -16.5 -1.5t-16.5 -6.5t-21 -15.5t-30 -28.5l-23 19q31 45 55 63.5t50 18.5q18 0 36 -9t35 -19.5t32 -19.5t28 -9q7 0 14 1t15.5 5.5t17 13.5t18.5 25l20 -22q-16 -32 -34.5 -50t-41.5 -20q-5 -1 -10.5 0t-10.5 2q-14 4 -29 12.5t-30 17.5t-30 16t-28 7z
M407 680l216 -621h54v-59h-218v59h84l-52 149h-278l-55 -149h79v-59h-215v59h64l204 562h-76v59h193zM357 614h-1l-127 -351h249z" />
    <glyph glyph-name="Adieresis" unicode="&#xc4;" horiz-adv-x="700" 
d="M259 870v-115h-63v115h63zM514 870v-115h-63v115h63zM407 680l216 -621h54v-59h-218v59h84l-52 149h-278l-55 -149h79v-59h-215v59h64l204 562h-76v59h193zM357 614h-1l-127 -351h249z" />
    <glyph glyph-name="Aring" unicode="&#xc5;" horiz-adv-x="700" 
d="M264 820q0 37 25.5 62.5t62.5 25.5t62.5 -25.5t25.5 -62.5t-25.5 -62.5t-62.5 -25.5t-62.5 25.5t-25.5 62.5zM292 820q0 -26 17 -43t43 -17t43 17t17 43t-17 43t-43 17t-43 -17t-17 -43zM407 680l216 -621h54v-59h-218v59h84l-52 149h-278l-55 -149h79v-59h-215v59h64
l204 562h-76v59h193zM357 614h-1l-127 -351h249z" />
    <glyph glyph-name="AE" unicode="&#xc6;" horiz-adv-x="916" 
d="M296 621v59h569v-134h-59v75h-295v-239h304v-58h-304v-265h295v75h59v-134h-428v269h-177q-33 -62 -66.5 -123t-67.5 -123h53l-6 -23h-163v59h59l303 562h-76zM286 328h151v285h-2z" />
    <glyph glyph-name="Ccedilla" unicode="&#xc7;" horiz-adv-x="610" 
d="M320 -10q-81 3 -133.5 31.5t-82.5 76.5t-41.5 111.5t-11.5 135.5q0 71 12 133.5t44 109.5t87 74.5t141 27.5q57 0 113 -8t117 -26v-130h-59v84q-28 6 -50.5 10.5t-42 6.5t-37 3t-35.5 1q-65 0 -106.5 -23.5t-65 -63t-32 -91.5t-8.5 -108q0 -60 8.5 -114t32 -94.5t65 -64
t106.5 -23.5q18 0 35.5 0.5t37 3t42 6.5t50.5 11v84h59v-130q-57 -17 -110 -24.5t-106 -9.5v-46q15 -1 30 -5t27 -12.5t19.5 -22t7.5 -32.5q0 -35 -25 -56t-70 -21q-18 0 -35 3t-37 9l5 25q12 -3 25 -5.5t30 -2.5q19 0 31 5.5t19 13t9.5 16.5t2.5 17q0 7 -3 16t-10.5 16.5
t-20.5 12.5t-34 5v64z" />
    <glyph glyph-name="Egrave" unicode="&#xc8;" horiz-adv-x="570" 
d="M205 870h61l63 -140h-40zM519 680v-134h-59v75h-295v-239h304v-58h-304v-265h295v75h59v-134h-497v59h69v562h-69v59h497z" />
    <glyph glyph-name="Eacute" unicode="&#xc9;" horiz-adv-x="570" 
d="M314 730h-40l63 140h62zM519 680v-134h-59v75h-295v-239h304v-58h-304v-265h295v75h59v-134h-497v59h69v562h-69v59h497z" />
    <glyph glyph-name="Ecircumflex" unicode="&#xca;" horiz-adv-x="570" 
d="M219 730h-40l105 140h48l105 -140h-40l-90 100zM519 680v-134h-59v75h-295v-239h304v-58h-304v-265h295v75h59v-134h-497v59h69v562h-69v59h497z" />
    <glyph glyph-name="Edieresis" unicode="&#xcb;" horiz-adv-x="570" 
d="M198 870v-115h-63v115h63zM453 870v-115h-63v115h63zM519 680v-134h-59v75h-295v-239h304v-58h-304v-265h295v75h59v-134h-497v59h69v562h-69v59h497z" />
    <glyph glyph-name="Igrave" unicode="&#xcc;" horiz-adv-x="256" 
d="M28 870h61l63 -140h-40zM91 59v562h-69v59h212v-59h-69v-562h69v-59h-212v59h69z" />
    <glyph glyph-name="Iacute" unicode="&#xcd;" horiz-adv-x="256" 
d="M145 730h-40l63 140h62zM91 59v562h-69v59h212v-59h-69v-562h69v-59h-212v59h69z" />
    <glyph glyph-name="Icircumflex" unicode="&#xce;" horiz-adv-x="256" 
d="M39 730h-40l105 140h48l105 -140h-40l-90 100zM91 59v562h-69v59h212v-59h-69v-562h69v-59h-212v59h69z" />
    <glyph glyph-name="Idieresis" unicode="&#xcf;" horiz-adv-x="256" 
d="M32 870v-115h-63v115h63zM287 870v-115h-63v115h63zM91 59v562h-69v59h212v-59h-69v-562h69v-59h-212v59h69z" />
    <glyph glyph-name="Eth" unicode="&#xd0;" horiz-adv-x="660" 
d="M328 680q81 0 135.5 -26t86.5 -71t45.5 -106t13.5 -132q0 -72 -13.5 -135t-45.5 -109.5t-86.5 -73.5t-135.5 -27h-306v59h69v264h-69v44h69v254h-69v59h306zM328 59q61 0 100.5 23.5t62.5 63t31.5 91.5t8.5 108t-8.5 106.5t-31.5 88t-62.5 59.5t-100.5 22h-163v-254h106
v-44h-106v-264h163z" />
    <glyph glyph-name="Ntilde" unicode="&#xd1;" horiz-adv-x="690" 
d="M301 799q-9 0 -16.5 -1.5t-16.5 -6.5t-21 -15.5t-30 -28.5l-23 19q31 45 55 63.5t50 18.5q18 0 36 -9t35 -19.5t32 -19.5t28 -9q7 0 14 1t15.5 5.5t17 13.5t18.5 25l20 -22q-16 -32 -34.5 -50t-41.5 -20q-5 -1 -10.5 0t-10.5 2q-14 4 -29 12.5t-30 17.5t-30 16t-28 7z
M667 680v-59h-68v-621h-76l-362 545h-2v-486h71v-59h-208v59h69v562h-69v59h141l366 -554h2v495h-71v59h207z" />
    <glyph glyph-name="Ograve" unicode="&#xd2;" horiz-adv-x="670" 
d="M247 870h61l63 -140h-40zM335 631q-66 0 -106.5 -23.5t-62.5 -63t-29.5 -91.5t-7.5 -108t7.5 -109.5t29.5 -95t62.5 -66.5t106.5 -25t106.5 25t62.5 66.5t29.5 95t7.5 109.5t-7.5 108t-29.5 91.5t-62.5 63t-106.5 23.5zM335 -10q-86 0 -141 28.5t-87 77t-44 113
t-12 136.5q0 71 12 133.5t44 109.5t87 74.5t141 27.5t141 -27.5t87 -74.5t44 -109.5t12 -133.5q0 -72 -12 -136.5t-44 -113t-87 -77t-141 -28.5z" />
    <glyph glyph-name="Oacute" unicode="&#xd3;" horiz-adv-x="670" 
d="M355 730h-40l63 140h62zM335 631q-66 0 -106.5 -23.5t-62.5 -63t-29.5 -91.5t-7.5 -108t7.5 -109.5t29.5 -95t62.5 -66.5t106.5 -25t106.5 25t62.5 66.5t29.5 95t7.5 109.5t-7.5 108t-29.5 91.5t-62.5 63t-106.5 23.5zM335 -10q-86 0 -141 28.5t-87 77t-44 113t-12 136.5
q0 71 12 133.5t44 109.5t87 74.5t141 27.5t141 -27.5t87 -74.5t44 -109.5t12 -133.5q0 -72 -12 -136.5t-44 -113t-87 -77t-141 -28.5z" />
    <glyph glyph-name="Ocircumflex" unicode="&#xd4;" horiz-adv-x="670" 
d="M247 730h-40l105 140h48l105 -140h-40l-90 100zM335 631q-66 0 -106.5 -23.5t-62.5 -63t-29.5 -91.5t-7.5 -108t7.5 -109.5t29.5 -95t62.5 -66.5t106.5 -25t106.5 25t62.5 66.5t29.5 95t7.5 109.5t-7.5 108t-29.5 91.5t-62.5 63t-106.5 23.5zM335 -10q-86 0 -141 28.5
t-87 77t-44 113t-12 136.5q0 71 12 133.5t44 109.5t87 74.5t141 27.5t141 -27.5t87 -74.5t44 -109.5t12 -133.5q0 -72 -12 -136.5t-44 -113t-87 -77t-141 -28.5z" />
    <glyph glyph-name="Otilde" unicode="&#xd5;" horiz-adv-x="670" 
d="M281 799q-9 0 -16.5 -1.5t-16.5 -6.5t-21 -15.5t-30 -28.5l-23 19q31 45 55 63.5t50 18.5q18 0 36 -9t35 -19.5t32 -19.5t28 -9q7 0 14 1t15.5 5.5t17 13.5t18.5 25l20 -22q-16 -32 -34.5 -50t-41.5 -20q-5 -1 -10.5 0t-10.5 2q-14 4 -29 12.5t-30 17.5t-30 16t-28 7z
M335 631q-66 0 -106.5 -23.5t-62.5 -63t-29.5 -91.5t-7.5 -108t7.5 -109.5t29.5 -95t62.5 -66.5t106.5 -25t106.5 25t62.5 66.5t29.5 95t7.5 109.5t-7.5 108t-29.5 91.5t-62.5 63t-106.5 23.5zM335 -10q-86 0 -141 28.5t-87 77t-44 113t-12 136.5q0 71 12 133.5t44 109.5
t87 74.5t141 27.5t141 -27.5t87 -74.5t44 -109.5t12 -133.5q0 -72 -12 -136.5t-44 -113t-87 -77t-141 -28.5z" />
    <glyph glyph-name="Odieresis" unicode="&#xd6;" horiz-adv-x="670" 
d="M242 870v-115h-63v115h63zM497 870v-115h-63v115h63zM335 631q-66 0 -106.5 -23.5t-62.5 -63t-29.5 -91.5t-7.5 -108t7.5 -109.5t29.5 -95t62.5 -66.5t106.5 -25t106.5 25t62.5 66.5t29.5 95t7.5 109.5t-7.5 108t-29.5 91.5t-62.5 63t-106.5 23.5zM335 -10
q-86 0 -141 28.5t-87 77t-44 113t-12 136.5q0 71 12 133.5t44 109.5t87 74.5t141 27.5t141 -27.5t87 -74.5t44 -109.5t12 -133.5q0 -72 -12 -136.5t-44 -113t-87 -77t-141 -28.5z" />
    <glyph glyph-name="multiply" unicode="&#xd7;" horiz-adv-x="526" 
d="M304 265l141 -141l-41 -41l-141 140l-141 -140l-41 41l140 141l-140 141l41 41l141 -141l141 141l41 -41z" />
    <glyph glyph-name="Oslash" unicode="&#xd8;" horiz-adv-x="670" 
d="M335 -10q-72 0 -121.5 20.5t-81.5 55.5l-75 -95l-25 20l79 98q-35 49 -47.5 115t-12.5 141q0 71 12 133.5t44 109.5t87 74.5t141 27.5q69 0 117 -19t80 -51l81 101l24 -19l-82 -103q36 -48 50 -113.5t14 -140.5q0 -72 -12 -136.5t-44 -113t-87 -77t-141 -28.5zM335 52
q66 0 106.5 24.5t62.5 65.5t29.5 94t7.5 109q0 53 -7 102.5t-30 87.5l-327 -412q23 -33 61 -52t97 -19zM335 627q-66 0 -106.5 -23t-62.5 -62t-29.5 -90t-7.5 -107q0 -52 6.5 -101.5t27.5 -88.5l326 410q-23 29 -60 45.5t-94 16.5z" />
    <glyph glyph-name="Ugrave" unicode="&#xd9;" horiz-adv-x="680" 
d="M231 870h61l63 -140h-40zM657 680v-59h-68v-381q0 -131 -63 -190.5t-186 -59.5t-186 59.5t-63 190.5v381h-69v59h212v-59h-69v-381q0 -29 4.5 -62t22 -62t53 -48t98.5 -19q59 0 93.5 19t52 48t22 62t4.5 62v381h-69v59h211z" />
    <glyph glyph-name="Uacute" unicode="&#xda;" horiz-adv-x="680" 
d="M360 730h-40l63 140h62zM657 680v-59h-68v-381q0 -131 -63 -190.5t-186 -59.5t-186 59.5t-63 190.5v381h-69v59h212v-59h-69v-381q0 -29 4.5 -62t22 -62t53 -48t98.5 -19q59 0 93.5 19t52 48t22 62t4.5 62v381h-69v59h211z" />
    <glyph glyph-name="Ucircumflex" unicode="&#xdb;" horiz-adv-x="680" 
d="M257 730h-40l105 140h48l105 -140h-40l-90 100zM657 680v-59h-68v-381q0 -131 -63 -190.5t-186 -59.5t-186 59.5t-63 190.5v381h-69v59h212v-59h-69v-381q0 -29 4.5 -62t22 -62t53 -48t98.5 -19q59 0 93.5 19t52 48t22 62t4.5 62v381h-69v59h211z" />
    <glyph glyph-name="Udieresis" unicode="&#xdc;" horiz-adv-x="680" 
d="M244 870v-115h-63v115h63zM499 870v-115h-63v115h63zM657 680v-59h-68v-381q0 -131 -63 -190.5t-186 -59.5t-186 59.5t-63 190.5v381h-69v59h212v-59h-69v-381q0 -29 4.5 -62t22 -62t53 -48t98.5 -19q59 0 93.5 19t52 48t22 62t4.5 62v381h-69v59h211z" />
    <glyph glyph-name="Yacute" unicode="&#xdd;" horiz-adv-x="660" 
d="M363 730h-40l63 140h62zM436 59v-59h-212v59h69v166l-213 396h-58v59h236v-59h-99l176 -325h2l174 325h-98v59h224v-59h-54l-216 -396v-166h69z" />
    <glyph glyph-name="Thorn" unicode="&#xde;" horiz-adv-x="620" 
d="M366 534q49 0 87 -14.5t63.5 -40t39 -61t13.5 -78.5q0 -91 -52 -142.5t-151 -51.5h-201v-146h-143v59h69v562h-69v59h143v-146h201zM165 205h194q63 0 98.5 34.5t35.5 100.5q0 62 -35.5 98.5t-98.5 36.5h-194v-270z" />
    <glyph glyph-name="germandbls" unicode="&#xdf;" horiz-adv-x="645" 
d="M101 449h-79v46l79 5q0 59 18.5 98t49 61.5t70 31.5t81.5 9q94 0 146.5 -38t52.5 -112q0 -46 -20 -74.5t-44 -48.5t-44 -35.5t-20 -33.5q0 -19 15.5 -28.5t32.5 -15.5q88 -31 124 -69.5t36 -95.5q0 -44 -17 -74.5t-44.5 -49.5t-62.5 -27t-71 -8q-38 0 -69 5.5t-60 14.5
l9 55q32 -11 61.5 -15.5t54.5 -4.5q43 0 68 12.5t38 30t16 35t3 26.5q0 32 -16 53.5t-38 35t-44 21.5t-34 14q-39 17 -54 33.5t-15 44.5q0 25 18 43t39.5 37t39.5 43.5t18 63.5q0 33 -13 53.5t-31.5 32t-40.5 15.5t-40 4q-46 0 -74 -15t-43.5 -38.5t-20.5 -53.5t-5 -60v-476
h-139v59h69v390z" />
    <glyph glyph-name="agrave" unicode="&#xe0;" horiz-adv-x="535" 
d="M79 374v116q50 10 98 15t88 5q43 0 76.5 -7.5t56.5 -26.5t34.5 -50.5t11.5 -79.5v-287h68v-59h-138v50h-2q-35 -29 -69.5 -43t-78.5 -16q-35 -2 -66.5 4.5t-56.5 24t-39.5 46.5t-14.5 72q0 44 18 72.5t47 45t67 23t77 6.5h118v57q0 55 -28 82t-96 27q-20 0 -47 -2t-65 -9
v-66h-59zM374 241h-108q-83 0 -116.5 -26t-33.5 -75q0 -43 31 -69t88 -26q50 0 85 16.5t54 31.5v148zM176 700h61l63 -140h-40z" />
    <glyph glyph-name="aacute" unicode="&#xe1;" horiz-adv-x="535" 
d="M79 374v116q50 10 98 15t88 5q43 0 76.5 -7.5t56.5 -26.5t34.5 -50.5t11.5 -79.5v-287h68v-59h-138v50h-2q-35 -29 -69.5 -43t-78.5 -16q-35 -2 -66.5 4.5t-56.5 24t-39.5 46.5t-14.5 72q0 44 18 72.5t47 45t67 23t77 6.5h118v57q0 55 -28 82t-96 27q-20 0 -47 -2t-65 -9
v-66h-59zM374 241h-108q-83 0 -116.5 -26t-33.5 -75q0 -43 31 -69t88 -26q50 0 85 16.5t54 31.5v148zM278 560h-40l63 140h62z" />
    <glyph glyph-name="acircumflex" unicode="&#xe2;" horiz-adv-x="535" 
d="M79 374v116q50 10 98 15t88 5q43 0 76.5 -7.5t56.5 -26.5t34.5 -50.5t11.5 -79.5v-287h68v-59h-138v50h-2q-35 -29 -69.5 -43t-78.5 -16q-35 -2 -66.5 4.5t-56.5 24t-39.5 46.5t-14.5 72q0 44 18 72.5t47 45t67 23t77 6.5h118v57q0 55 -28 82t-96 27q-20 0 -47 -2t-65 -9
v-66h-59zM374 241h-108q-83 0 -116.5 -26t-33.5 -75q0 -43 31 -69t88 -26q50 0 85 16.5t54 31.5v148zM181 560h-40l105 140h48l105 -140h-40l-90 100z" />
    <glyph glyph-name="atilde" unicode="&#xe3;" horiz-adv-x="535" 
d="M79 374v116q50 10 98 15t88 5q43 0 76.5 -7.5t56.5 -26.5t34.5 -50.5t11.5 -79.5v-287h68v-59h-138v50h-2q-35 -29 -69.5 -43t-78.5 -16q-35 -2 -66.5 4.5t-56.5 24t-39.5 46.5t-14.5 72q0 44 18 72.5t47 45t67 23t77 6.5h118v57q0 55 -28 82t-96 27q-20 0 -47 -2t-65 -9
v-66h-59zM374 241h-108q-83 0 -116.5 -26t-33.5 -75q0 -43 31 -69t88 -26q50 0 85 16.5t54 31.5v148zM216 629q-9 0 -16.5 -1.5t-16.5 -6.5t-21 -15.5t-30 -28.5l-23 19q31 45 55 63.5t50 18.5q18 0 36 -9t35 -19.5t32 -19.5t28 -9q7 0 14 1t15.5 5.5t17 13.5t18.5 25
l20 -22q-16 -32 -34.5 -50t-41.5 -20q-5 -1 -10.5 0t-10.5 2q-14 4 -29 12.5t-30 17.5t-30 16t-28 7z" />
    <glyph glyph-name="adieresis" unicode="&#xe4;" horiz-adv-x="535" 
d="M79 374v116q50 10 98 15t88 5q43 0 76.5 -7.5t56.5 -26.5t34.5 -50.5t11.5 -79.5v-287h68v-59h-138v50h-2q-35 -29 -69.5 -43t-78.5 -16q-35 -2 -66.5 4.5t-56.5 24t-39.5 46.5t-14.5 72q0 44 18 72.5t47 45t67 23t77 6.5h118v57q0 55 -28 82t-96 27q-20 0 -47 -2t-65 -9
v-66h-59zM374 241h-108q-83 0 -116.5 -26t-33.5 -75q0 -43 31 -69t88 -26q50 0 85 16.5t54 31.5v148zM173 700v-115h-63v115h63zM428 700v-115h-63v115h63z" />
    <glyph glyph-name="aring" unicode="&#xe5;" horiz-adv-x="535" 
d="M79 374v116q50 10 98 15t88 5q43 0 76.5 -7.5t56.5 -26.5t34.5 -50.5t11.5 -79.5v-287h68v-59h-138v50h-2q-35 -29 -69.5 -43t-78.5 -16q-35 -2 -66.5 4.5t-56.5 24t-39.5 46.5t-14.5 72q0 44 18 72.5t47 45t67 23t77 6.5h118v57q0 55 -28 82t-96 27q-20 0 -47 -2t-65 -9
v-66h-59zM374 241h-108q-83 0 -116.5 -26t-33.5 -75q0 -43 31 -69t88 -26q50 0 85 16.5t54 31.5v148zM182 650q0 37 25.5 62.5t62.5 25.5t62.5 -25.5t25.5 -62.5t-25.5 -62.5t-62.5 -25.5t-62.5 25.5t-25.5 62.5zM210 650q0 -26 17 -43t43 -17t43 17t17 43t-17 43t-43 17
t-43 -17t-17 -43z" />
    <glyph glyph-name="ae" unicode="&#xe6;" horiz-adv-x="852" 
d="M250 451q-20 0 -47 -1.5t-65 -9.5v-66h-59v116q39 8 87.5 14t94.5 6q73 0 110 -25.5t51 -88.5q22 52 68 83t122 31q78 0 120 -27.5t60 -68.5t17 -87.5t-9 -85.5h-351q1 -43 11 -78.5t31.5 -60.5t55 -39t81.5 -14q38 0 76 3.5t80 16.5l10 -57q-46 -13 -86 -17.5t-89 -4.5
q-80 0 -129.5 24.5t-77.5 69.5q-25 -28 -50.5 -46t-51.5 -28.5t-51.5 -15t-49.5 -4.5q-75 0 -119 39t-44 105q0 44 16.5 73t45.5 46.5t68.5 24.5t84.5 7h113v54q0 57 -27 84.5t-97 27.5zM235 45q49 0 89.5 18.5t69.5 47.5q-11 26 -15.5 58.5t-4.5 71.5h-114q-41 0 -68.5 -7
t-44.5 -20t-24 -32t-7 -42q0 -43 31 -69t88 -26zM609 455q-43 0 -72 -13t-48 -36t-28 -53.5t-12 -65.5h283q6 29 4.5 59t-15 54t-40.5 39.5t-72 15.5z" />
    <glyph glyph-name="ccedilla" unicode="&#xe7;" horiz-adv-x="492" 
d="M125 250q0 -43 9 -80t29 -64t51 -42t76 -15q26 0 60.5 2.5t93.5 17.5l13 -57q-44 -11 -81.5 -16.5t-82.5 -5.5v-46q15 -1 30 -5t27 -12.5t19.5 -22t7.5 -32.5q0 -35 -25.5 -56t-70.5 -21q-18 0 -34.5 3t-36.5 9l5 25q12 -3 25 -5.5t30 -2.5q18 0 30 5.5t19 13t10 16.5
t3 17q0 7 -2.5 16t-10 16.5t-20.5 12.5t-35 5v65q-59 3 -99.5 23.5t-66 54.5t-36.5 80t-11 101q0 58 12.5 105.5t40.5 82t74 53.5t112 19q47 0 84.5 -5.5t82.5 -16.5v-114h-58v66q-38 8 -65 9.5t-44 1.5q-45 0 -76 -15t-51 -42t-29 -64t-9 -80z" />
    <glyph glyph-name="egrave" unicode="&#xe8;" horiz-adv-x="530" 
d="M125 241q1 -42 11 -77.5t31.5 -61t55.5 -39.5t83 -14q38 0 76 3.5t80 16.5l9 -57q-45 -13 -85.5 -17.5t-89.5 -4.5q-68 0 -114.5 19t-75.5 53.5t-42 82t-13 105.5t12.5 105.5t41 82t74 53.5t111.5 19q78 0 120 -27.5t59.5 -68.5t17 -87.5t-8.5 -85.5h-353zM286 455
q-43 0 -72.5 -13t-48 -36t-28 -53.5t-12.5 -65.5h285q6 29 4.5 59t-15 54t-41 39.5t-72.5 15.5zM186 700h61l63 -140h-40z" />
    <glyph glyph-name="eacute" unicode="&#xe9;" horiz-adv-x="530" 
d="M125 241q1 -42 11 -77.5t31.5 -61t55.5 -39.5t83 -14q38 0 76 3.5t80 16.5l9 -57q-45 -13 -85.5 -17.5t-89.5 -4.5q-68 0 -114.5 19t-75.5 53.5t-42 82t-13 105.5t12.5 105.5t41 82t74 53.5t111.5 19q78 0 120 -27.5t59.5 -68.5t17 -87.5t-8.5 -85.5h-353zM286 455
q-43 0 -72.5 -13t-48 -36t-28 -53.5t-12.5 -65.5h285q6 29 4.5 59t-15 54t-41 39.5t-72.5 15.5zM318 560h-40l63 140h62z" />
    <glyph glyph-name="ecircumflex" unicode="&#xea;" horiz-adv-x="530" 
d="M125 241q1 -42 11 -77.5t31.5 -61t55.5 -39.5t83 -14q38 0 76 3.5t80 16.5l9 -57q-45 -13 -85.5 -17.5t-89.5 -4.5q-68 0 -114.5 19t-75.5 53.5t-42 82t-13 105.5t12.5 105.5t41 82t74 53.5t111.5 19q78 0 120 -27.5t59.5 -68.5t17 -87.5t-8.5 -85.5h-353zM286 455
q-43 0 -72.5 -13t-48 -36t-28 -53.5t-12.5 -65.5h285q6 29 4.5 59t-15 54t-41 39.5t-72.5 15.5zM200 560h-40l105 140h48l105 -140h-40l-90 100z" />
    <glyph glyph-name="edieresis" unicode="&#xeb;" horiz-adv-x="530" 
d="M125 241q1 -42 11 -77.5t31.5 -61t55.5 -39.5t83 -14q38 0 76 3.5t80 16.5l9 -57q-45 -13 -85.5 -17.5t-89.5 -4.5q-68 0 -114.5 19t-75.5 53.5t-42 82t-13 105.5t12.5 105.5t41 82t74 53.5t111.5 19q78 0 120 -27.5t59.5 -68.5t17 -87.5t-8.5 -85.5h-353zM286 455
q-43 0 -72.5 -13t-48 -36t-28 -53.5t-12.5 -65.5h285q6 29 4.5 59t-15 54t-41 39.5t-72.5 15.5zM188 700v-115h-63v115h63zM443 700v-115h-63v115h63z" />
    <glyph glyph-name="igrave" unicode="&#xec;" horiz-adv-x="252" 
d="M22 500h139v-441h69v-59h-208v59h69v382h-69v59zM7 700h61l63 -140h-40z" />
    <glyph glyph-name="iacute" unicode="&#xed;" horiz-adv-x="252" 
d="M22 500h139v-441h69v-59h-208v59h69v382h-69v59zM147 560h-40l63 140h62z" />
    <glyph glyph-name="icircumflex" unicode="&#xee;" horiz-adv-x="252" 
d="M30 560h-40l105 140h48l105 -140h-40l-90 100zM22 500h139v-441h69v-59h-208v59h69v382h-69v59z" />
    <glyph glyph-name="idieresis" unicode="&#xef;" horiz-adv-x="252" 
d="M22 500h139v-441h69v-59h-208v59h69v382h-69v59zM26 700v-115h-63v115h63zM281 700v-115h-63v115h63z" />
    <glyph glyph-name="eth" unicode="&#xf0;" 
d="M453 717l26 -26l-73 -73q43 -45 68 -122t25 -196q0 -59 -10.5 -115t-37 -99.5t-71.5 -69.5t-113 -26q-46 0 -85.5 15.5t-68.5 45.5t-45.5 72.5t-16.5 96.5q0 113 54.5 174t152.5 61q51 0 94.5 -26.5t74.5 -70.5l2 1q-1 20 -4 47.5t-10 56.5t-20 57.5t-33 51.5l-75 -75
l-26 27l68 68q-22 17 -50 28t-64 11q-34 0 -64.5 -5t-68.5 -19l-10 55l34.5 11.5t33.5 9t37 5.5t44 2q44 0 83.5 -12t72.5 -38zM423 301q-26 39 -64 66t-83 27q-47 0 -76 -16.5t-46 -42t-23 -56.5t-6 -59q0 -42 12 -74t32 -53.5t47 -32.5t56 -11q49 0 79.5 21t47 56.5
t21.5 81t3 93.5z" />
    <glyph glyph-name="ntilde" unicode="&#xf1;" horiz-adv-x="590" 
d="M364 59h65v272q0 52 -24 86t-86 34q-25 0 -48 -7t-43.5 -17t-37.5 -21.5t-29 -21.5v-325h65v-59h-204v59h69v382h-69v59h139v-73h2q38 37 84.5 60t101.5 23q75 0 112.5 -42t37.5 -122v-287h68v-59h-203v59zM245 629q-9 0 -16.5 -1.5t-16.5 -6.5t-21 -15.5t-30 -28.5
l-23 19q31 45 55 63.5t50 18.5q18 0 36 -9t35 -19.5t32 -19.5t28 -9q7 0 14 1t15.5 5.5t17 13.5t18.5 25l20 -22q-16 -32 -34.5 -50t-41.5 -20q-5 -1 -10.5 0t-10.5 2q-14 4 -29 12.5t-30 17.5t-30 16t-28 7z" />
    <glyph glyph-name="ograve" unicode="&#xf2;" 
d="M275 451q-44 0 -72.5 -16t-46 -43t-24.5 -63.5t-7 -78.5t7 -78.5t24.5 -63.5t46 -43t72.5 -16q43 0 72 16t46.5 43t24.5 63.5t7 78.5t-7 78.5t-24.5 63.5t-46.5 43t-72 16zM275 -10q-61 0 -103.5 19t-69.5 53.5t-39 82t-12 105.5t12 105.5t39 82t69.5 53.5t103.5 19
t103.5 -19t69.5 -53.5t39 -82t12 -105.5t-12 -105.5t-39 -82t-69.5 -53.5t-103.5 -19zM180 700h61l63 -140h-40z" />
    <glyph glyph-name="oacute" unicode="&#xf3;" 
d="M275 451q-44 0 -72.5 -16t-46 -43t-24.5 -63.5t-7 -78.5t7 -78.5t24.5 -63.5t46 -43t72.5 -16q43 0 72 16t46.5 43t24.5 63.5t7 78.5t-7 78.5t-24.5 63.5t-46.5 43t-72 16zM275 -10q-61 0 -103.5 19t-69.5 53.5t-39 82t-12 105.5t12 105.5t39 82t69.5 53.5t103.5 19
t103.5 -19t69.5 -53.5t39 -82t12 -105.5t-12 -105.5t-39 -82t-69.5 -53.5t-103.5 -19zM295 560h-40l63 140h62z" />
    <glyph glyph-name="ocircumflex" unicode="&#xf4;" 
d="M275 451q-44 0 -72.5 -16t-46 -43t-24.5 -63.5t-7 -78.5t7 -78.5t24.5 -63.5t46 -43t72.5 -16q43 0 72 16t46.5 43t24.5 63.5t7 78.5t-7 78.5t-24.5 63.5t-46.5 43t-72 16zM275 -10q-61 0 -103.5 19t-69.5 53.5t-39 82t-12 105.5t12 105.5t39 82t69.5 53.5t103.5 19
t103.5 -19t69.5 -53.5t39 -82t12 -105.5t-12 -105.5t-39 -82t-69.5 -53.5t-103.5 -19zM186 560h-40l105 140h48l105 -140h-40l-90 100z" />
    <glyph glyph-name="otilde" unicode="&#xf5;" 
d="M275 451q-44 0 -72.5 -16t-46 -43t-24.5 -63.5t-7 -78.5t7 -78.5t24.5 -63.5t46 -43t72.5 -16q43 0 72 16t46.5 43t24.5 63.5t7 78.5t-7 78.5t-24.5 63.5t-46.5 43t-72 16zM275 -10q-61 0 -103.5 19t-69.5 53.5t-39 82t-12 105.5t12 105.5t39 82t69.5 53.5t103.5 19
t103.5 -19t69.5 -53.5t39 -82t12 -105.5t-12 -105.5t-39 -82t-69.5 -53.5t-103.5 -19zM222 629q-9 0 -16.5 -1.5t-16.5 -6.5t-21 -15.5t-30 -28.5l-23 19q31 45 55 63.5t50 18.5q18 0 36 -9t35 -19.5t32 -19.5t28 -9q7 0 14 1t15.5 5.5t17 13.5t18.5 25l20 -22
q-16 -32 -34.5 -50t-41.5 -20q-5 -1 -10.5 0t-10.5 2q-14 4 -29 12.5t-30 17.5t-30 16t-28 7z" />
    <glyph glyph-name="odieresis" unicode="&#xf6;" 
d="M275 451q-44 0 -72.5 -16t-46 -43t-24.5 -63.5t-7 -78.5t7 -78.5t24.5 -63.5t46 -43t72.5 -16q43 0 72 16t46.5 43t24.5 63.5t7 78.5t-7 78.5t-24.5 63.5t-46.5 43t-72 16zM275 -10q-61 0 -103.5 19t-69.5 53.5t-39 82t-12 105.5t12 105.5t39 82t69.5 53.5t103.5 19
t103.5 -19t69.5 -53.5t39 -82t12 -105.5t-12 -105.5t-39 -82t-69.5 -53.5t-103.5 -19zM179 700v-115h-63v115h63zM434 700v-115h-63v115h63z" />
    <glyph glyph-name="divide" unicode="&#xf7;" horiz-adv-x="500" 
d="M439 287v-44h-378v44h378zM281 165v-115h-62v115h62zM281 480v-115h-62v115h62z" />
    <glyph glyph-name="oslash" unicode="&#xf8;" 
d="M275 -10q-52 0 -90 15t-64 41l-64 -75l-25 20l66 76q-25 35 -36 81t-11 102q0 58 12 105.5t39 82t69.5 53.5t103.5 19q52 0 89.5 -15t63.5 -41l65 75l24 -19l-66 -77q25 -35 36.5 -81t11.5 -102q0 -58 -12 -105.5t-39 -82t-69.5 -53.5t-103.5 -19zM275 49q43 0 72 16
t46.5 43t24.5 63.5t7 78.5q0 34 -6 65t-20 56l-235 -275q18 -22 45 -34.5t66 -12.5zM275 451q-44 0 -72.5 -16t-46 -43t-24.5 -63.5t-7 -78.5q0 -34 5.5 -65.5t19.5 -55.5l235 274q-17 22 -44.5 35t-65.5 13z" />
    <glyph glyph-name="ugrave" unicode="&#xf9;" horiz-adv-x="590" 
d="M22 500h139v-331q0 -26 5.5 -48t18.5 -38t34 -25t52 -9q25 0 48 7t43.5 17t37.5 21.5t29 21.5v325h-88v59h158v-441h68v-59h-138v72h-2q-38 -36 -84.5 -59t-101.5 -23q-75 0 -112.5 41.5t-37.5 122.5v287h-69v59zM185 700h61l63 -140h-40z" />
    <glyph glyph-name="uacute" unicode="&#xfa;" horiz-adv-x="590" 
d="M22 500h139v-331q0 -26 5.5 -48t18.5 -38t34 -25t52 -9q25 0 48 7t43.5 17t37.5 21.5t29 21.5v325h-88v59h158v-441h68v-59h-138v72h-2q-38 -36 -84.5 -59t-101.5 -23q-75 0 -112.5 41.5t-37.5 122.5v287h-69v59zM302 560h-40l63 140h62z" />
    <glyph glyph-name="ucircumflex" unicode="&#xfb;" horiz-adv-x="590" 
d="M22 500h139v-331q0 -26 5.5 -48t18.5 -38t34 -25t52 -9q25 0 48 7t43.5 17t37.5 21.5t29 21.5v325h-88v59h158v-441h68v-59h-138v72h-2q-38 -36 -84.5 -59t-101.5 -23q-75 0 -112.5 41.5t-37.5 122.5v287h-69v59zM194 560h-40l105 140h48l105 -140h-40l-90 100z" />
    <glyph glyph-name="udieresis" unicode="&#xfc;" horiz-adv-x="590" 
d="M22 500h139v-331q0 -26 5.5 -48t18.5 -38t34 -25t52 -9q25 0 48 7t43.5 17t37.5 21.5t29 21.5v325h-88v59h158v-441h68v-59h-138v72h-2q-38 -36 -84.5 -59t-101.5 -23q-75 0 -112.5 41.5t-37.5 122.5v287h-69v59zM186 700v-115h-63v115h63zM441 700v-115h-63v115h63z" />
    <glyph glyph-name="yacute" unicode="&#xfd;" horiz-adv-x="580" 
d="M362 500h195v-59h-46l-187 -475q-32 -80 -77 -128t-112 -48q-17 0 -35 2t-32 5l7 57q13 -3 24 -4t22 -1q28 0 50 13t38 33t28 44.5t21 47.5l-188 454h-48v59h206v-59h-80l153 -381h2l138 381h-79v59zM318 560h-40l63 140h62z" />
    <glyph glyph-name="thorn" unicode="&#xfe;" horiz-adv-x="560" 
d="M22 700h139v-250h2q29 26 70.5 43t88.5 17q52 0 88 -20t58 -55t31.5 -82.5t9.5 -102.5t-10 -102.5t-32.5 -82.5t-59 -55t-88.5 -20q-46 0 -86.5 16t-69.5 42h-2v-189h69v-59h-208v59h69v782h-69v59zM435 250q0 40 -6.5 76.5t-22.5 64t-43 44t-67 16.5q-23 0 -43.5 -5
t-38 -12t-31 -15.5t-22.5 -15.5v-306q9 -7 22.5 -15.5t31 -15.5t38 -12t43.5 -5q40 0 67 16t43 44t22.5 64t6.5 77z" />
    <glyph glyph-name="ydieresis" unicode="&#xff;" horiz-adv-x="580" 
d="M362 500h195v-59h-46l-187 -475q-32 -80 -77 -128t-112 -48q-17 0 -35 2t-32 5l7 57q13 -3 24 -4t22 -1q28 0 50 13t38 33t28 44.5t21 47.5l-188 454h-48v59h206v-59h-80l153 -381h2l138 381h-79v59zM202 700v-115h-63v115h63zM457 700v-115h-63v115h63z" />
    <glyph glyph-name="OE" unicode="&#x152;" horiz-adv-x="1024" 
d="M335 631q-66 0 -106.5 -23.5t-62.5 -63t-29.5 -91.5t-7.5 -108t7.5 -109.5t29.5 -95t62.5 -66.5t106.5 -25t106.5 25.5t62.5 67.5t29.5 96.5t7.5 113.5q0 55 -8 106t-30.5 89t-62.5 61t-105 23zM530 0v132q-9 -31 -24.5 -57t-39 -45t-56 -29.5t-75.5 -10.5
q-86 0 -141.5 28.5t-87 77t-43.5 113t-12 136.5q0 71 12 133.5t44 109.5t87 74.5t141 27.5q44 0 77 -10.5t56 -29t38.5 -44t24.5 -55.5v129h441v-134h-58v75h-295v-239h303v-58h-303v-265h295v75h58v-134h-442z" />
    <glyph glyph-name="oe" unicode="&#x153;" horiz-adv-x="904" 
d="M501 241q1 -42 10.5 -77.5t30.5 -61t55 -39.5t83 -14q38 0 76 3.5t80 16.5l9 -57q-45 -13 -85.5 -17.5t-89.5 -4.5q-89 0 -138 37t-69 97q-19 -60 -64 -97t-124 -37q-61 0 -103.5 19t-69.5 53.5t-39 82t-12 105.5t12 105.5t39 82t69.5 53.5t103.5 19q79 0 124 -37t64 -98
q20 61 68 98t133 37q78 0 120 -27.5t60 -68.5t17 -87.5t-9 -85.5h-351zM275 451q-44 0 -72.5 -16t-46 -43t-24.5 -63.5t-7 -78.5t7 -78.5t24.5 -63.5t46 -43t72.5 -16q42 0 71 15t46.5 42t25 64t7.5 80q0 42 -7 78.5t-24.5 63.5t-46.5 43t-72 16zM660 455q-42 0 -71.5 -13
t-48 -36t-27.5 -53.5t-12 -65.5h283q6 29 4.5 59t-15 54t-41 39.5t-72.5 15.5z" />
    <glyph glyph-name="Scaron" unicode="&#x160;" horiz-adv-x="580" 
d="M289 770l90 100h40l-105 -140h-48l-105 140h40zM110 157v-81q60 -14 101.5 -19t78.5 -5q45 0 75.5 11t49.5 29t27.5 40t8.5 45q0 34 -17.5 57.5t-44 38.5t-57.5 24.5t-57 16.5q-40 10 -79 26.5t-70 41t-50 57.5t-19 76q0 47 18 80.5t49 54.5t72.5 30.5t89.5 9.5
q56 0 110 -8t115 -26v-134h-59v84q-56 13 -93 17t-73 4q-43 0 -72 -9t-46.5 -24t-25 -35t-7.5 -42q0 -33 19 -57t46.5 -40.5t60 -27t59.5 -16.5q40 -9 77.5 -23.5t67 -37t47 -54.5t17.5 -76q0 -49 -18 -85.5t-50 -61t-76 -36.5t-95 -12q-56 0 -117 8t-122 26v133h59z" />
    <glyph glyph-name="scaron" unicode="&#x161;" horiz-adv-x="480" 
d="M367 374v66q-42 10 -77.5 11.5t-54.5 1.5q-39 0 -62 -9.5t-34 -22t-14 -25.5t-3 -19q0 -14 4.5 -27t17.5 -24t36.5 -21t61.5 -18q41 -9 76.5 -19.5t61 -27.5t40 -41.5t14.5 -60.5q0 -72 -45.5 -110t-133.5 -38q-57 0 -110.5 5.5t-98.5 16.5v114h59v-66q44 -10 83 -11.5
t59 -1.5q40 0 63.5 11t35.5 25t15 28.5t3 22.5q0 14 -5 26.5t-19 23.5t-38.5 20.5t-63.5 17.5q-38 7 -72 17.5t-59.5 28t-40 43.5t-14.5 64q0 67 46 101t133 34q57 0 103.5 -5.5t91.5 -16.5v-114h-59zM248 600l90 100h40l-105 -140h-48l-105 140h40z" />
    <glyph glyph-name="Ydieresis" unicode="&#x178;" horiz-adv-x="660" 
d="M240 870v-115h-63v115h63zM495 870v-115h-63v115h63zM436 59v-59h-212v59h69v166l-213 396h-58v59h236v-59h-99l176 -325h2l174 325h-98v59h224v-59h-54l-216 -396v-166h69z" />
    <glyph glyph-name="Zcaron" unicode="&#x17d;" horiz-adv-x="560" 
d="M289 770l90 100h40l-105 -140h-48l-105 140h40zM505 680v-55l-368 -564v-2h325v75h59v-134h-476v55l371 564v2h-299v-75h-58v134h446z" />
    <glyph glyph-name="zcaron" unicode="&#x17e;" horiz-adv-x="470" 
d="M429 500v-55l-309 -388v-2h262v71h59v-126h-409v55l311 388v2h-246v-71h-58v126h390zM251 600l90 100h40l-105 -140h-48l-105 140h40z" />
    <glyph glyph-name="florin" unicode="&#x192;" horiz-adv-x="460" 
d="M176 449h-79v46l79 5v43q0 88 33 122.5t106 34.5q17 0 37 -2t39 -5l-7 -55q-17 3 -29.5 4t-24.5 1q-51 0 -67.5 -28t-16.5 -83v-32h140v-51h-140v-492q0 -87 -31 -127t-108 -40q-17 0 -36.5 2t-39.5 5l7 55q17 -3 30 -4t24 -1q51 0 67.5 28t16.5 83v491z" />
    <glyph glyph-name="circumflex" unicode="&#x2c6;" horiz-adv-x="420" 
d="M121 560h-40l105 140h48l105 -140h-40l-90 100z" />
    <glyph glyph-name="tilde" unicode="&#x2dc;" horiz-adv-x="450" 
d="M173 629q-9 0 -16.5 -1.5t-16.5 -6.5t-21 -15.5t-30 -28.5l-23 19q31 45 55 63.5t50 18.5q18 0 36 -9t35 -19.5t32 -19.5t28 -9q7 0 14 1t15.5 5.5t17 13.5t18.5 25l20 -22q-16 -32 -34.5 -50t-41.5 -20q-5 -1 -10.5 0t-10.5 2q-14 4 -29 12.5t-30 17.5t-30 16t-28 7z
" />
    <glyph glyph-name="uni03BC" unicode="&#x3bc;" horiz-adv-x="590" 
d="M22 500h139v-331q0 -26 5.5 -48t18.5 -38t34 -25t52 -9q25 0 48 7t43.5 17t37.5 21.5t29 21.5v325h-88v59h158v-441h68v-59h-138v72h-2q-32 -29 -70 -49.5t-82 -24.5q-42 -3 -70 8t-44 39v-61q0 -46 -4.5 -80t-17 -58t-34.5 -37t-56 -17q-9 -1 -18 -1.5t-20 -0.5
q-14 1 -31 2.5t-34 4.5l7 55q17 -3 30 -4t24 -1q50 0 67 28t17 83v483h-69v59z" />
    <glyph glyph-name="endash" unicode="&#x2013;" horiz-adv-x="600" 
d="M539 294v-58h-478v58h478z" />
    <glyph glyph-name="emdash" unicode="&#x2014;" horiz-adv-x="700" 
d="M639 294v-58h-578v58h578z" />
    <glyph glyph-name="quoteleft" unicode="&#x2018;" horiz-adv-x="192" 
d="M122 680l-17 -130h26v-123h-70v123l36 130h25z" />
    <glyph glyph-name="quoteright" unicode="&#x2019;" horiz-adv-x="192" 
d="M70 427l17 130h-26v123h70v-123l-36 -130h-25z" />
    <glyph glyph-name="quotesinglbase" unicode="&#x201a;" horiz-adv-x="192" 
d="M70 -130l17 130h-26v122h70v-122l-36 -130h-25z" />
    <glyph glyph-name="quotedblleft" unicode="&#x201c;" horiz-adv-x="412" 
d="M342 680l-17 -130h26v-123h-70v123l36 130h25zM122 680l-17 -130h26v-123h-70v123l36 130h25z" />
    <glyph glyph-name="quotedblright" unicode="&#x201d;" horiz-adv-x="412" 
d="M70 427l17 130h-26v123h70v-123l-36 -130h-25zM290 427l17 130h-26v123h70v-123l-36 -130h-25z" />
    <glyph glyph-name="quotedblbase" unicode="&#x201e;" horiz-adv-x="412" 
d="M70 -130l17 130h-26v122h70v-122l-36 -130h-25zM290 -130l17 130h-26v122h70v-122l-36 -130h-25z" />
    <glyph glyph-name="dagger" unicode="&#x2020;" horiz-adv-x="580" 
d="M323 437l4 -437h-74l4 437l-196 -3v66l196 -4l-4 204h74l-4 -204l196 4v-66z" />
    <glyph glyph-name="daggerdbl" unicode="&#x2021;" horiz-adv-x="580" 
d="M257 437l-196 -3v66l196 -4l-4 204h74l-4 -204l196 4v-66l-196 3v-175l196 4v-66l-196 4l4 -204h-74l4 204l-196 -4v66l196 -4v175z" />
    <glyph glyph-name="bullet" unicode="&#x2022;" horiz-adv-x="230" 
d="M131 311v-122h-70v122h70z" />
    <glyph glyph-name="ellipsis" unicode="&#x2026;" horiz-adv-x="632" 
d="M151 122v-122h-70v122h70zM351 122v-122h-70v122h70zM551 122v-122h-70v122h70z" />
    <glyph glyph-name="perthousand" unicode="&#x2030;" horiz-adv-x="1110" 
d="M219 0h-48l370 680h48zM181 399q-65 0 -98.5 36.5t-33.5 99.5t33.5 99.5t98.5 36.5t99 -36.5t34 -99.5t-34 -99.5t-99 -36.5zM181 435q44 0 66 26t22 74t-22 74t-66 26t-66 -26t-22 -74t22 -74t66 -26zM579 9q-65 0 -99 36.5t-34 99.5t34 99t99 36t98.5 -36t33.5 -99
t-33.5 -99.5t-98.5 -36.5zM579 45q43 0 65.5 26t22.5 74t-22.5 74t-65.5 26q-44 0 -66 -26t-22 -74t22 -74t66 -26zM929 9q-65 0 -99 36.5t-34 99.5t34 99t99 36t98.5 -36t33.5 -99t-33.5 -99.5t-98.5 -36.5zM929 45q43 0 65.5 26t22.5 74t-22.5 74t-65.5 26q-44 0 -66 -26
t-22 -74t22 -74t66 -26z" />
    <glyph glyph-name="guilsinglleft" unicode="&#x2039;" horiz-adv-x="380" 
d="M319 435v-74l-184 -111l184 -111v-74l-258 163v44z" />
    <glyph glyph-name="guilsinglright" unicode="&#x203a;" horiz-adv-x="380" 
d="M319 272v-44l-258 -163v74l184 111l-184 111v74z" />
    <glyph glyph-name="Euro" unicode="&#x20ac;" horiz-adv-x="650" 
d="M93 286q-1 14 -1.5 29t-0.5 30v24t1 25h-63v36h67q6 55 23.5 103t50 82.5t82.5 54.5t123 20q57 0 113 -8t117 -26v-130h-59v84q-28 6 -50.5 10.5t-42 6.5t-37 3t-35.5 1q-53 0 -90 -16t-60.5 -43.5t-36.5 -64t-18 -77.5h195l-3 -36h-198q-1 -13 -1 -25v-24v-30t1 -29h201
l-3 -36h-191q6 -42 18.5 -79t36.5 -64t60 -42.5t89 -15.5q18 0 35.5 0.5t37 3t42 6.5t50.5 11v84h59v-130q-61 -18 -117 -26t-113 -8q-71 0 -121 19.5t-82.5 54t-50 82.5t-24.5 104h-68v36h64z" />
    <glyph glyph-name="trademark" unicode="&#x2122;" horiz-adv-x="800" 
d="M310 680v-84h-37v44h-86v-267h49v-37h-142v37h49v267h-86v-44h-38v84h291zM780 680v-37h-48v-270h48v-37h-141v37h47v229h-2l-109 -266h-32l-107 266h-2v-229h48v-37h-137v37h49v270h-49v37h108l109 -271h1l110 271h107z" />
    <glyph glyph-name="glyph217" horiz-adv-x="250" 
d="M144 367v-115h-63v115h63z" />
    <glyph glyph-name="glyph225" horiz-adv-x="0" 
 />
    <glyph glyph-name="glyph226" horiz-adv-x="0" 
 />
    </font>
</defs>
</svg>
